<svg width="70" height="70" viewBox="0 0 70 70" fill="none" xmlns="http://www.w3.org/2000/svg">
<path d="M43.761 31.6936C45.295 33.605 45.5548 36.5225 44.4118 38.9532C43.4274 41.0505 41.5107 42.7704 39.0169 43.7958C37.1056 44.5806 34.8798 44.9771 32.0111 45.0427C31.94 45.0427 31.8607 45.0454 31.7732 45.0454C31.3712 45.0454 30.8326 45.0044 30.3622 44.7146C30.1954 44.6107 29.7251 44.2716 29.5419 43.7357C29.0087 43.8915 28.4646 44.0037 27.9122 44.0583C27.6771 44.0802 27.4529 44.0939 27.2368 44.0939C26.6927 44.0939 26.2142 44.0201 25.7849 43.8697C24.9564 43.5826 24.3165 43.0029 24.0239 42.2783C23.8817 41.9255 23.8407 41.5482 23.879 41.1845C23.8544 41.1845 23.8298 41.1873 23.8051 41.1873C23.745 41.1873 23.6821 41.1873 23.6192 41.1818C22.9001 41.1408 22.2657 40.8345 21.8774 40.3396C21.3907 39.7188 21.3032 38.7892 21.6587 37.9688C21.9567 37.2825 22.4763 36.7766 22.9438 36.3747C24.3356 35.1798 26.0036 34.2802 27.7673 33.7716C28.1364 33.6677 28.5274 33.8782 28.6341 34.2501C28.7407 34.622 28.5274 35.0075 28.1556 35.1169C26.5833 35.568 25.0985 36.372 23.8571 37.4356C23.5098 37.7337 23.1297 38.0974 22.9438 38.5239C22.7962 38.8684 22.8098 39.2594 22.9794 39.4754C23.1161 39.6504 23.3868 39.7653 23.7012 39.7844C24.0704 39.8036 24.4751 39.7051 24.8579 39.6012C26.3563 39.1911 27.8137 38.6114 29.1864 37.8813C29.5282 37.6981 29.952 37.8294 30.1325 38.1712C30.313 38.513 30.1844 38.9368 29.8426 39.1173C28.459 39.8528 26.9934 40.438 25.4895 40.8727C25.2735 41.0477 25.1997 41.4415 25.3255 41.7532C25.4622 42.095 25.8094 42.3903 26.247 42.5435C26.6571 42.6857 27.1438 42.7239 27.7782 42.661C29.2958 42.5134 30.7723 41.8899 31.9372 40.911C32.2325 40.6622 32.6755 40.7005 32.9243 40.9958C33.1732 41.2911 33.1349 41.7341 32.8396 41.9829C32.3009 42.4368 31.702 42.8224 31.0704 43.1396C31.0567 43.1505 31.0485 43.1669 31.0349 43.1778C30.8927 43.2763 30.8626 43.3364 30.8626 43.3364C30.8735 43.3173 30.9802 43.4458 31.106 43.5224C31.3056 43.6454 31.6501 43.6482 31.9837 43.64C34.6743 43.5798 36.7415 43.2161 38.489 42.497C40.6574 41.6056 42.3144 40.1345 43.1512 38.3544C44.0726 36.3966 43.8785 34.0724 42.6726 32.5684C42.432 32.2676 42.4785 31.8274 42.782 31.584C43.0828 31.3434 43.523 31.3899 43.7664 31.6907L43.761 31.6936ZM61.0802 16.3181C60.9736 16.5834 60.7165 16.7556 60.4322 16.7556H56.8419C56.9787 17.0209 57.1072 17.297 57.2056 17.5924C57.3916 18.1502 57.5447 18.9924 57.222 19.8291C56.8201 20.8709 55.7482 21.5408 54.6517 21.5408C54.5314 21.5408 54.4139 21.5299 54.2935 21.5135C54.4084 22.6674 54.5314 23.8815 54.6545 25.101C54.8131 26.6705 54.9717 28.2373 55.1139 29.6674C55.4721 33.2713 55.8795 37.3563 54.444 41.0727C53.3338 43.9466 51.0725 46.5497 48.0786 48.4041C47.6739 48.6556 47.2583 48.888 46.8345 49.1123C46.3806 50.5424 45.9075 52.0189 45.0927 53.3643C44.2396 54.7752 43.0966 55.8279 41.8333 56.3803L41.929 60.6295C44.0126 60.7826 45.7489 61.4088 47.1052 62.4944C47.3458 62.6858 47.4306 63.0112 47.3185 63.2955C47.2064 63.5799 46.9192 63.7658 46.6157 63.7357L45.295 63.6373L45.6341 64.2471C45.7653 64.4822 45.7489 64.7693 45.5958 64.9881C45.4645 65.1767 45.2485 65.2861 45.0243 65.2861C44.986 65.2861 44.9505 65.2834 44.9122 65.2779L39.9466 64.4685C39.8126 64.6818 39.5774 64.8131 39.3231 64.8021L38.0981 64.742C38.2512 64.9553 38.3989 65.1822 38.552 65.4392C38.6969 65.6826 38.6805 65.9889 38.511 66.2158C38.377 66.3935 38.1665 66.4974 37.9504 66.4974C37.893 66.4974 37.8356 66.492 37.7782 66.4755L31.4945 64.8704L28.2761 65.5403C27.7894 65.647 27.2918 65.4392 27.021 65.0153C26.7503 64.5942 26.764 64.0638 27.0593 63.6591C27.7457 62.7212 28.8476 61.8435 29.9195 61.3595L29.7198 56.0521C27.9234 55.0923 26.5862 53.4079 26.2116 51.6224C22.1948 51.3462 18.8972 47.6766 17.664 44.0758C16.7808 43.7121 15.8101 43.2938 14.916 42.7059C13.7813 41.9457 12.9582 41.0051 12.5289 39.9797C12.0805 38.9106 12.0805 37.7293 12.4879 36.7586C11.8152 36.2664 11.2 35.6922 10.6668 35.0469C10.2347 34.5246 9.65504 33.7153 9.60855 32.7172C9.57574 32.0144 9.89839 31.2269 10.4918 30.7648C10.1418 30.3519 9.81091 29.9226 9.52105 29.4633C8.82927 28.3695 8.69254 27.4207 9.11636 26.6469C9.4691 25.9989 10.1991 25.5887 11.0414 25.5586C10.4945 24.7957 10.0241 23.9071 9.8191 22.8953C9.48824 21.2684 10.0379 19.1602 11.7277 18.2742C13.0101 17.6043 14.6781 17.7574 16.5512 18.7254C19.9609 20.4836 22.8401 23.8715 24.1333 27.623C27.9423 28.8671 34.6497 27.9238 37.69 25.6679C37.8842 25.523 38.0646 25.3316 38.2287 25.0937C39.6588 23.021 40.5994 20.5601 41.5099 18.1812C42.456 15.7093 43.3474 13.3742 44.6955 11.8701C45.1849 11.2986 45.7427 10.8146 46.3416 10.4045C45.6388 9.95603 45.1193 9.27793 44.9306 8.50134C44.6134 7.20249 45.3271 5.7861 46.5193 5.34586C47.0853 5.13805 47.7388 5.17906 48.313 5.4525C48.5345 4.87828 48.92 4.36423 49.4341 4.01423C50.5169 3.27871 52.0455 3.33611 53.0681 4.15368C53.6615 4.62673 54.0443 5.32397 54.1673 6.06503C54.7935 5.90097 55.4881 5.9666 56.0814 6.29746C57.0931 6.86621 57.6646 8.14044 57.4349 9.32986C57.2708 10.1748 56.7212 10.9404 55.9693 11.4326C56.2372 11.7635 56.4833 12.1162 56.6911 12.5045C57.9708 13.0404 59.3271 14.0193 60.9185 15.5506C61.1236 15.7475 61.1892 16.051 61.0826 16.3162L61.0802 16.3181ZM47.8677 9.57539C49.0407 9.09961 50.3068 8.91092 51.5646 9.05039C52.8279 9.19258 53.9708 9.67112 54.917 10.4121C55.4994 10.1524 55.9451 9.64102 56.0572 9.06952C56.1748 8.46525 55.8877 7.80078 55.3927 7.52188C54.9169 7.25391 54.2169 7.39337 53.9298 7.81173C53.7275 8.10431 53.3392 8.19728 53.0247 8.03322C52.7103 7.86642 52.5708 7.49181 52.7021 7.16096C52.9564 6.51019 52.7376 5.68985 52.1908 5.25235C51.6439 4.81485 50.7962 4.78477 50.2165 5.17852C49.7107 5.52305 49.4318 6.17655 49.5083 6.78362C49.5493 6.9094 49.5767 7.04065 49.5903 7.17464C49.6286 7.53284 49.388 7.86099 49.0325 7.93204C48.6798 8.00313 48.3298 7.79532 48.2231 7.45079C48.1931 7.34961 48.1657 7.24297 48.1466 7.13907C48.0837 7.00234 47.9716 6.8793 47.8157 6.78359C47.5559 6.62227 47.2415 6.57578 46.9981 6.66602C46.4704 6.86016 46.1368 7.56563 46.2845 8.17813C46.4376 8.80428 47.0227 9.34299 47.7419 9.52073C47.7883 9.53167 47.8239 9.55901 47.8676 9.57816L47.8677 9.57539ZM36.8946 63.2817C35.7325 62.8114 34.3599 62.5817 33.0692 62.4286C32.7165 62.3848 32.4485 62.0841 32.454 61.7286L32.4978 56.8286C32.0384 56.8067 31.5845 56.7384 31.1388 56.6208L31.3356 61.8024C31.3466 62.1114 31.1524 62.393 30.8599 62.4915C30.0724 62.7567 29.1837 63.3665 28.5466 64.0555L31.3657 63.4676C31.4724 63.4457 31.579 63.4485 31.6829 63.4731L36.1153 64.6051C36.0688 64.5613 36.0223 64.5149 35.9704 64.4684C35.7544 64.2688 35.6888 63.9543 35.8036 63.6836C35.9184 63.4129 36.1973 63.2379 36.4845 63.257L36.8974 63.2762L36.8946 63.2817ZM33.9005 56.7437L33.8595 61.1187C34.7837 61.2472 35.7243 61.4277 36.6157 61.7066C36.6431 61.682 36.6595 61.6519 36.6923 61.6328L38.0595 60.7332L37.9337 56.4429C37.447 56.2378 37.0095 55.948 36.6459 55.5871C36.6322 55.5953 36.6212 55.6062 36.6103 55.6171C35.8064 56.205 34.8713 56.5796 33.9005 56.7437L33.9005 56.7437ZM41.2231 61.9965C40.8485 61.9883 40.5504 61.6847 40.5422 61.3129L40.441 56.7656C40.2278 56.7929 40.0145 56.8148 39.8012 56.8148C39.6481 56.8148 39.4949 56.8066 39.3445 56.7929L39.4703 61.0832C39.4785 61.3265 39.3582 61.5562 39.1559 61.6875L38.1633 62.3382C38.4805 62.505 38.7785 62.6937 39.0601 62.907L43.7031 63.6644L43.4379 63.1831C43.3121 62.9589 43.3203 62.6827 43.4598 62.4667C43.4981 62.4066 43.5445 62.3546 43.5992 62.3081C42.8746 62.1222 42.0816 62.0156 41.2231 61.9937L41.2231 61.9965ZM45.0786 49.9518C43.4024 50.66 41.5594 51.2014 39.4703 51.6116C38.9864 52.8448 38.3957 53.8483 37.6821 54.6385C38.4559 55.3686 39.7356 55.6229 40.9032 55.2401C42.0407 54.8682 43.1016 53.944 43.8918 52.6397C44.395 51.8084 44.7586 50.8869 45.0786 49.9518ZM55.2286 16.7566H54.7747C54.2387 16.7566 53.7411 16.4668 53.4786 15.9965C53.2133 15.5289 53.2215 14.9739 53.5004 14.5172C54.0282 13.6477 54.5587 13.0407 55.1438 12.6496C54.2852 11.4082 52.9563 10.6152 51.4114 10.4402C49.3305 10.2106 47.2114 11.0855 45.7458 12.7945C44.5618 14.118 43.7141 16.3355 42.8145 18.6844C41.9204 21.0251 40.9032 23.6802 39.3774 25.8921C39.1258 26.253 38.8387 26.5566 38.5215 26.7945C35.0298 29.3867 27.5047 30.3929 23.3292 28.8288C23.1296 28.755 22.9737 28.5909 22.9081 28.3859C21.7816 24.8421 19.0991 21.6209 15.9052 19.9748C14.8935 19.4525 13.4579 18.9467 12.3724 19.5181C11.306 20.076 10.9642 21.5334 11.1857 22.6216C11.4673 24.0107 12.4517 25.1865 13.2774 26.0533C13.5044 26.2912 13.5345 26.6521 13.3513 26.9255C13.1681 27.1989 12.8235 27.3056 12.5173 27.188C12.129 27.0376 11.7079 26.9666 11.1528 26.9611C10.8028 26.9884 10.461 27.106 10.3434 27.322C10.1329 27.7103 10.4774 28.3638 10.7016 28.722C12.1454 31.0053 14.4778 32.6951 17.0973 33.3568C17.4719 33.4498 17.6988 33.8326 17.6059 34.2072C17.5266 34.5244 17.2422 34.7349 16.9278 34.7349C16.8703 34.7349 16.8129 34.7294 16.7555 34.713C14.7813 34.2154 12.9629 33.1954 11.4781 31.8119C11.2102 31.9049 10.986 32.2822 11.0051 32.6568C11.027 33.097 11.2594 33.5755 11.7434 34.1607C12.9383 35.6044 14.6008 36.6435 16.4246 37.081C16.7992 37.1712 17.0316 37.5485 16.9414 37.9259C16.8649 38.2458 16.5777 38.4618 16.2605 38.4618C16.2059 38.4618 16.1512 38.4563 16.0965 38.4426C15.257 38.2403 14.4504 37.9259 13.6902 37.5184C13.507 38.1036 13.548 38.7981 13.8188 39.4434C14.1414 40.2118 14.7867 40.9391 15.689 41.5407C16.5668 42.1176 17.5922 42.536 18.4945 42.9024C18.6887 42.9817 18.8363 43.143 18.8992 43.3426C19.9465 46.7388 23.0637 50.31 26.8069 50.2359C27.1897 50.2195 27.4877 50.5093 27.5178 50.8785C27.6491 52.5082 28.9069 54.1406 30.6514 54.9555C30.6569 54.9582 30.6596 54.9609 30.6651 54.9609C30.6788 54.9664 30.6897 54.9746 30.7034 54.9801C32.3167 55.7266 34.3648 55.5242 35.7948 54.477C36.8612 53.7031 37.6815 52.4891 38.3077 50.7582C38.3159 50.7336 38.335 50.7199 38.346 50.6981C38.3678 50.6543 38.3924 50.6133 38.4225 50.5723C38.4499 50.5367 38.4772 50.5066 38.51 50.4793C38.5428 50.4492 38.5784 50.4246 38.6167 50.4C38.6577 50.3754 38.7014 50.359 38.7479 50.3426C38.7725 50.3344 38.7889 50.318 38.8135 50.3125L38.9174 50.2906C42.3026 49.6535 44.9742 48.6746 47.3449 47.2062C50.082 45.5136 52.141 43.1539 53.1417 40.5615C54.457 37.1572 54.0687 33.25 53.7242 29.8019C53.582 28.3746 53.4234 26.805 53.2648 25.2383C53.1089 23.7015 52.9531 22.1675 52.8136 20.7648C52.1355 20.0976 51.7855 19.0941 51.996 18.1371C52.078 17.7597 52.4499 17.5218 52.83 17.6039C53.2073 17.6859 53.4452 18.0605 53.3632 18.4378C53.2183 19.0968 53.6394 19.8625 54.2683 20.0757C54.8863 20.2863 55.6874 19.9199 55.9171 19.321C56.0511 18.9683 56.0402 18.5089 55.8789 18.0276C55.7339 17.5929 55.4961 17.18 55.2336 16.7507L55.2286 16.7566ZM58.6001 15.3566C57.6567 14.5828 56.8145 14.0578 56.027 13.7461C55.5813 14.0059 55.152 14.4899 54.6981 15.2418C54.6927 15.2528 54.679 15.2719 54.6981 15.3102C54.7145 15.3403 54.7419 15.3567 54.7747 15.3567L58.6001 15.3566ZM51.7261 12.4445C51.1655 12.4445 50.7143 12.8984 50.7143 13.4563C50.7143 14.0168 51.1682 14.468 51.7261 14.468C52.2866 14.468 52.7378 14.0141 52.7378 13.4563C52.7378 12.8957 52.2839 12.4445 51.7261 12.4445Z" fill="black"/>
</svg>
