<svg width="60" height="60" viewBox="0 0 60 60" fill="none" xmlns="http://www.w3.org/2000/svg">
<path d="M23.304 19.8445C22.6571 19.8445 22.1344 19.3219 22.1344 18.675C22.1344 18.0281 22.6571 17.5054 23.304 17.5054C23.9509 17.5054 24.4735 18.0281 24.4735 18.675C24.4735 19.3219 23.9509 19.8445 23.304 19.8445ZM15.912 18.675C15.912 18.0281 15.3893 17.5054 14.7424 17.5054C14.0955 17.5054 13.5729 18.0281 13.5729 18.675C13.5729 19.3219 14.0955 19.8445 14.7424 19.8445C15.3893 19.8445 15.912 19.3219 15.912 18.675ZM19.3268 22.0617C19.7581 21.6093 20.5503 20.8125 20.4424 20.2476L20.3838 20.1609C19.8377 19.7765 18.6073 19.875 17.8713 19.8445C16.8752 19.8656 16.826 20.4117 17.4729 21.2695C18.0588 22.0851 18.619 22.6617 19.3268 22.064L19.3268 22.0617ZM26.7613 43.6802C26.4895 43.4927 26.1144 43.5583 25.9269 43.8325C24.1879 46.345 23.623 51.813 23.4613 54.0465C23.4355 54.3981 23.309 54.7332 23.0934 55.0168C22.7465 55.4762 22.1957 55.7504 21.6215 55.7504H18.966C18.1129 55.7504 17.4215 55.0567 17.4215 54.2059C17.4215 53.3363 18.3777 52.6613 19.2027 52.6613C19.5355 52.6613 19.8027 52.3941 19.8027 52.0613V44.5283C19.8027 44.1955 19.5355 43.9283 19.2027 43.9283C18.8699 43.9283 18.6027 44.1955 18.6027 44.5283V51.5218C17.2808 51.7937 16.2215 52.9328 16.2215 54.2054C16.2215 55.7195 17.4543 56.95 18.966 56.95H21.6215C22.5707 56.95 23.4777 56.4976 24.0519 55.7406C24.4058 55.2718 24.6144 54.7164 24.659 54.1351C24.7808 52.4687 25.3012 46.8506 26.9137 44.5166C27.1012 44.2447 27.0355 43.8697 26.7613 43.6822L26.7613 43.6802ZM13.0103 24.1212C18.6238 28.054 25.6713 24.1305 25.7443 24.0907C26.0303 23.9266 26.3982 24.0274 26.5623 24.3157C26.7263 24.604 26.6256 24.9696 26.3373 25.1336C26.1404 25.2461 23.1146 26.9289 19.3483 27.0789V28.3656C20.2881 28.6305 20.9842 29.4859 20.9842 30.5102C20.9842 31.743 19.9811 32.7461 18.7483 32.7461C17.5154 32.7461 16.5123 31.743 16.5123 30.5102C16.5123 29.486 17.2084 28.6305 18.1483 28.3656V27.0719C16.2522 26.9735 14.2319 26.4367 12.3243 25.1031C12.0524 24.9133 11.9868 24.5383 12.1766 24.2687C12.3665 23.9969 12.7415 23.9312 13.011 24.1211L13.0103 24.1212ZM18.7478 29.4742C18.1759 29.4742 17.7119 29.9382 17.7119 30.5101C17.7119 31.082 18.1759 31.5461 18.7478 31.5461C19.3197 31.5461 19.7838 31.082 19.7838 30.5101C19.7838 29.9382 19.3197 29.4742 18.7478 29.4742ZM55.2938 22.9137C55.0149 23.5723 54.4969 24.0856 53.836 24.3551C52.3806 24.9457 51.211 26.3473 50.7071 28.1051C50.2571 29.673 50.2618 31.5645 50.7165 34.0581C50.8009 34.5221 50.8946 34.9862 50.9907 35.4526C51.5063 37.9886 52.0829 40.8246 51.3892 43.4751C50.8314 45.6032 49.5564 47.9189 47.7986 49.9951C47.222 50.6772 46.4392 51.467 45.415 51.767C45.4009 51.9803 45.3892 52.1936 45.3751 52.3998C45.204 54.9779 43.0454 56.9983 40.4579 56.9983H27.7219C27.5672 56.9983 27.4172 56.9373 27.3071 56.8319C25.9313 55.5147 25.7579 53.2155 26.918 51.7084C27.743 50.6373 29.1235 50.117 30.436 50.2553C29.761 48.8959 29.168 47.3701 28.9829 45.7412C28.711 43.3529 29.4352 41.0959 30.9188 39.7017C32.6954 38.033 35.5126 37.8548 37.2048 39.3033C37.4579 39.5189 37.4861 39.8986 37.2704 40.1494C37.0548 40.4025 36.6751 40.4306 36.4243 40.215C35.2056 39.1697 33.061 39.3361 31.7415 40.5759C30.5321 41.7126 29.9462 43.5947 30.1759 45.6054C30.4009 47.5718 31.315 49.4304 32.1822 50.9889C32.3134 51.228 32.2712 51.5233 32.0744 51.7131C31.8775 51.9029 31.5798 51.9358 31.3478 51.7928C30.2486 51.1225 28.6572 51.4178 27.872 52.4397C27.1337 53.4007 27.197 54.8843 27.9822 55.8007H40.4627C42.4197 55.8007 44.0533 54.2726 44.1822 52.3226C44.3486 49.8265 44.4775 46.8711 44.1799 43.8896C43.7182 39.27 42.4478 35.3326 40.4041 32.1896C37.7791 28.1536 33.6051 25.1371 28.9501 23.9116C28.6595 23.8342 28.4837 23.5553 28.5165 23.2647C28.5188 23.2365 28.5165 23.2108 28.5212 23.1826V23.1803C28.5235 23.1756 28.5259 23.1733 28.5282 23.1686C28.5446 23.103 28.5657 23.0373 28.6032 22.9764C28.9126 22.5006 29.1681 21.9967 29.379 21.474C28.7767 21.31 28.172 21.1483 27.5767 20.9701C27.2603 20.874 27.0798 20.5389 27.1735 20.2225C27.2696 19.9061 27.6024 19.7256 27.9212 19.8194C28.5259 20.0022 29.1399 20.1662 29.7516 20.3327C29.9063 19.7256 30.0024 19.1046 30.0352 18.4788L28.0852 18.9663C28.036 18.978 27.9868 18.985 27.9399 18.985C27.6704 18.985 27.4266 18.8022 27.3587 18.5303C27.279 18.2092 27.4735 17.8834 27.7946 17.8038L30.0188 17.2483C29.9204 15.9593 29.5571 14.696 28.929 13.5593C28.9196 13.5429 28.9102 13.5288 28.9032 13.5124C28.868 13.4515 28.8376 13.3882 28.8024 13.3272C28.6337 13.0437 28.7274 12.678 29.0087 12.5069C29.6181 10.0366 29.5196 7.41845 28.7133 5.00695C26.6649 6.5046 24.8532 8.28585 23.3178 10.3109C23.1186 10.5734 22.7413 10.6273 22.4788 10.4281C22.2139 10.2289 22.1624 9.85159 22.3616 9.58909C22.4507 9.46956 22.5468 9.35471 22.6382 9.23753C20.5757 8.38908 18.2108 8.32583 16.1062 9.06409C16.2421 9.31487 16.1952 9.62894 15.9655 9.81409C15.7077 10.0203 15.328 9.98049 15.1218 9.72268C13.6522 7.89458 12.0116 6.19533 10.2327 4.66268C9.65854 6.93378 9.51319 9.31268 9.79914 11.6377C9.88117 11.6494 9.9632 11.6752 10.0382 11.7221C10.3171 11.9002 10.3991 12.2705 10.221 12.5518C9.32101 13.9651 8.82411 15.6197 8.72571 17.3026L10.739 17.8065C11.0601 17.8861 11.257 18.2119 11.175 18.533C11.107 18.8049 10.8632 18.9877 10.5937 18.9877C10.5468 18.9877 10.4953 18.983 10.4484 18.9689L8.72574 18.5377C8.7609 19.126 8.84059 19.7096 8.97418 20.2814C9.52263 20.1314 10.0711 19.9861 10.6125 19.8221C10.9312 19.7283 11.264 19.9064 11.3601 20.2252C11.4539 20.5439 11.2758 20.8767 10.957 20.9728C10.4156 21.1346 9.86716 21.2799 9.31871 21.4322C9.49215 21.908 9.6984 22.3697 9.94681 22.8103C9.95618 22.8267 9.95618 22.8431 9.96322 22.8595C9.97962 22.897 9.99134 22.9345 10.0007 22.9744C10.0101 23.0119 10.0148 23.047 10.0171 23.0845C10.0195 23.122 10.0148 23.1572 10.0077 23.1947C10.0007 23.2369 9.99134 23.2744 9.97728 23.3142C9.97025 23.3306 9.97259 23.347 9.96556 23.3634C8.79136 25.8033 8.56166 28.7424 9.24366 32.6094C9.64444 34.8899 10.357 37.1563 11.0437 39.3499C11.3319 40.2687 11.6202 41.1851 11.8874 42.1085C12.6937 44.8835 13.5609 48.5305 13.1155 52.14C13.078 52.44 12.8225 52.665 12.5202 52.665H12.2858C11.4327 52.665 10.7413 53.3588 10.7413 54.2096C10.7413 55.0627 11.435 55.7541 12.2858 55.7541H14.2686C14.6014 55.7541 14.8686 56.0213 14.8686 56.3541C14.8686 56.687 14.6014 56.9541 14.2686 56.9541H12.2858C10.7718 56.9541 9.54128 55.7213 9.54128 54.2096C9.54128 52.7986 10.61 51.6338 11.9788 51.4815C12.26 48.2518 11.4725 44.975 10.7366 42.4445C10.4694 41.5304 10.1858 40.621 9.89988 39.7117C9.20143 37.4828 8.47723 35.1765 8.06238 32.8187C7.36158 28.8343 7.58894 25.7502 8.76318 23.1297C8.52881 22.6844 8.32959 22.225 8.16083 21.7516C7.30538 21.9719 6.44523 22.1805 5.58973 22.368C5.54755 22.3774 5.50301 22.3821 5.46083 22.3821C5.18427 22.3821 4.93583 22.1899 4.87488 21.911C4.80457 21.5875 5.00847 21.2664 5.33191 21.1961C6.15926 21.0156 6.98896 20.8141 7.81631 20.6008C7.6335 19.8274 7.53506 19.0329 7.51396 18.2383L4.94991 17.5961C4.62882 17.5164 4.43196 17.1906 4.51397 16.8696C4.59366 16.5461 4.91944 16.3493 5.24052 16.4336L7.54677 17.0102C7.66396 15.5172 8.06472 14.05 8.74912 12.7258C8.74678 12.7164 8.74209 12.7094 8.73975 12.7023C8.21475 9.62498 8.421 6.41833 9.3327 3.43533C9.39129 3.24314 9.54129 3.09314 9.73348 3.03689C9.92567 2.9783 10.1319 3.02049 10.2866 3.14705C12.103 4.63765 13.7811 6.30175 15.3071 8.09235C17.8993 7.05875 20.8971 7.1197 23.4351 8.27516C24.9679 6.49156 26.721 4.91421 28.6661 3.57826C28.8161 3.47513 29.0059 3.44701 29.1794 3.49857C29.3528 3.55013 29.4934 3.68138 29.5638 3.85013C30.745 6.80558 30.9208 10.1031 30.0771 13.1711C30.6958 14.35 31.0661 15.6414 31.1927 16.9633L33.2903 16.4383C33.6114 16.3563 33.9372 16.5532 34.0169 16.8743C34.0965 17.1954 33.902 17.5212 33.5809 17.6008L31.2442 18.1844C31.2302 19.0165 31.113 19.8461 30.9067 20.65C31.6708 20.8445 32.4348 21.032 33.1989 21.1985C33.5224 21.2688 33.7263 21.5899 33.6559 21.9133C33.595 22.1946 33.3466 22.3844 33.07 22.3844C33.0278 22.3844 32.9833 22.3797 32.9411 22.3704C32.1419 22.1946 31.3426 22 30.5434 21.7962C30.3887 22.1993 30.2059 22.5954 29.9997 22.9751C34.6356 24.3907 38.7627 27.4774 41.4067 31.541C43.5559 34.8457 44.8895 38.9636 45.3723 43.7756C45.3817 43.8787 45.3887 43.9818 45.3981 44.0849C45.7637 43.4474 46.0121 42.8615 46.1528 42.3013C46.5746 40.6209 46.1762 38.6498 45.752 36.5663C45.6395 36.0179 45.541 35.5234 45.4496 35.0312C45.0653 32.9312 44.6574 29.7742 45.5598 26.6337C46.5137 23.3102 48.8527 20.6057 51.8203 19.4007C52.4836 19.1288 53.2125 19.1335 53.8711 19.4124C54.532 19.689 55.043 20.2093 55.3125 20.8702C55.582 21.5335 55.5773 22.2624 55.2984 22.921L55.2938 22.9137ZM54.1946 21.3152C54.0446 20.9496 53.7634 20.6637 53.4001 20.509C53.0344 20.3566 52.6337 20.3543 52.268 20.5019C49.6407 21.5707 47.5618 23.9847 46.7085 26.9569C45.8765 29.8538 46.2632 32.8259 46.6242 34.8059C46.7132 35.2887 46.8116 35.7762 46.9101 36.2637C47.3741 38.5418 47.8007 40.6418 47.3109 42.5872C47.0413 43.656 46.4695 44.7669 45.5203 46.0653C45.5765 47.5864 45.5461 49.0653 45.4828 50.4528C46.0312 50.1646 46.5047 49.6653 46.8773 49.2224C48.5203 47.2794 49.7086 45.1302 50.2242 43.1709C50.8477 40.7896 50.3016 38.0989 49.8187 35.7249C49.7156 35.2186 49.6195 34.7452 49.5328 34.2741C49.0406 31.5928 49.0477 29.5256 49.5492 27.7726C50.1539 25.6632 51.5859 23.971 53.3789 23.2421C53.7445 23.0945 54.0305 22.8109 54.1852 22.4476C54.3399 22.0843 54.3399 21.6812 54.1922 21.3155L54.1946 21.3152Z" fill="black"/>
</svg>
