<svg width="70" height="70" viewBox="0 0 70 70" fill="none" xmlns="http://www.w3.org/2000/svg">
<path d="M15.8293 20.2889C15.8293 21.1584 15.2824 21.8612 14.6098 21.8612C13.9371 21.8612 13.3902 21.1584 13.3902 20.2889C13.3902 19.4194 13.9371 18.7166 14.6098 18.7166C15.2824 18.7166 15.8293 19.4194 15.8293 20.2889ZM20.6636 61.4139H19.25C18.7414 61.4139 18.2711 61.1569 17.9867 60.7275C17.7352 60.3475 17.6887 59.899 17.861 59.4998C17.9567 59.2756 18.2492 58.5865 19.868 58.551C20.0621 58.5455 20.248 58.4607 20.3766 58.3158C20.5051 58.1709 20.568 57.9767 20.5488 57.7826C20.4805 57.1017 20.6856 56.4455 21.1285 55.9369C21.2516 55.7947 21.3145 55.6087 21.298 55.4201C21.2844 55.2314 21.1914 55.0591 21.0465 54.9388C20.4914 54.4767 20.1441 53.8423 20.0758 53.1478C20.0047 52.467 20.2097 51.8107 20.6527 51.3048C20.7758 51.1626 20.8386 50.9767 20.8222 50.788C20.8086 50.5994 20.7156 50.4271 20.5707 50.3068C20.0156 49.8447 19.6711 49.2103 19.6 48.5158C19.5316 47.8349 19.7339 47.1787 20.1796 46.6701C20.3027 46.5279 20.3656 46.3419 20.3492 46.1533C20.3328 45.9646 20.2425 45.7923 20.0976 45.672C19.5425 45.2099 19.198 44.5755 19.1269 43.9056L19.064 42.9732C19.0366 42.5877 18.6976 42.3087 18.3175 42.3224C17.932 42.3498 17.6421 42.6834 17.6667 43.0689L17.7324 44.0232C17.8199 44.8681 18.1671 45.6529 18.7276 46.2872C18.3038 46.99 18.1179 47.8103 18.2054 48.6552C18.2929 49.4975 18.6401 50.2849 19.2007 50.9193C18.7768 51.622 18.5909 52.4423 18.6784 53.2872C18.7632 54.1295 19.1132 54.9142 19.6737 55.5513C19.3702 56.0517 19.1897 56.6149 19.1432 57.2028C17.56 57.4216 16.8682 58.2473 16.5702 58.9473C16.212 59.7868 16.2995 60.7165 16.8163 61.4958C17.3604 62.3188 18.2683 62.811 19.2471 62.811H20.6608C21.0463 62.811 21.3608 62.4993 21.3608 62.111C21.3608 61.7255 21.0491 61.411 20.6608 61.411L20.6636 61.4139ZM52.3171 61.4139H50.9745C50.2526 61.4139 49.8561 60.8916 49.7358 60.4459C49.6182 60.0084 49.7003 59.4205 50.2854 59.0842C50.5397 58.9365 50.8542 58.8217 51.2151 58.7397C51.4065 58.6959 51.5706 58.5729 51.669 58.4033C51.7647 58.2311 51.7866 58.0287 51.7237 57.84L50.6519 54.5561L49.8726 52.3713C49.7714 52.0869 49.5226 51.8846 49.189 51.9092C48.7651 51.9065 48.2456 51.715 47.841 51.3514C47.4363 50.9904 47.182 50.5119 47.1546 50.0771C47.1355 49.7682 46.9167 49.5057 46.6132 49.4373C46.1812 49.3388 45.7409 49.0025 45.4593 48.5541C45.1749 48.1084 45.0519 47.5669 45.1367 47.1349C45.2132 46.7548 44.9671 46.3857 44.5898 46.3092C44.207 46.2299 43.8405 46.476 43.764 46.856C43.6054 47.6408 43.7996 48.5568 44.2753 49.3033C44.6554 49.9076 45.216 50.3861 45.8285 50.6459C45.9816 51.2857 46.3589 51.9037 46.9031 52.3904C47.4335 52.8662 48.0679 53.1752 48.7051 53.2736L49.3258 55.0072L50.168 57.594C49.9602 57.676 49.7633 57.7662 49.5829 57.8701C48.5356 58.4744 48.0653 59.6256 48.3797 60.8069C48.6997 62.0073 49.7415 62.8112 50.9692 62.8112H52.3118C52.6973 62.8112 53.0118 62.4994 53.0118 62.1112C53.0118 61.7256 52.7001 61.4112 52.3118 61.4112L52.3171 61.4139ZM66.4891 25.9653C66.4317 26.9223 65.9641 27.8411 65.2833 28.3907C65.3434 29.2712 64.9934 30.2418 64.3317 30.9364C63.6974 31.6255 62.8141 32.0438 61.9391 32.0958C61.5454 32.8068 60.8673 33.3728 60.0524 33.6927C60.7114 34.1001 61.2446 34.7591 61.5289 35.5466C61.8133 36.3231 61.8297 37.179 61.5891 37.9282C62.1141 38.4887 62.4614 39.2489 62.5598 40.0829C62.6583 40.895 62.5051 41.7071 62.1415 42.388C62.5598 43.0196 62.7895 43.8044 62.7868 44.6193C62.7868 45.4013 62.5653 46.1779 62.1606 46.8232C62.5489 47.4684 62.7595 48.2368 62.7567 49.0353C62.7567 49.8337 62.5462 50.5993 62.1552 51.2392C62.5435 51.879 62.754 52.6446 62.754 53.4431C62.754 54.2415 62.5435 55.0098 62.1525 55.6552C62.5353 56.2813 62.7486 57.0415 62.754 57.8427C62.7841 58.5563 62.579 59.527 61.9529 60.1806C62.0267 60.5415 62.0103 60.9216 61.9037 61.2934C61.7287 61.9032 61.2829 62.4419 60.7114 62.7344C60.613 62.7837 60.5036 62.811 60.3943 62.811H55.8525C54.6247 62.811 53.583 62.0044 53.263 60.8067C52.9458 59.6255 53.4189 58.4716 54.4661 57.8673C54.6521 57.7606 54.8544 57.6649 55.0704 57.5829L53.9247 53.6782C53.3477 53.2571 52.9129 52.6637 52.686 52.0102C51.8985 51.8871 51.1356 51.4825 50.5696 50.8754C50.0009 50.2875 49.67 49.5219 49.6372 48.7508C48.9208 48.4035 48.3193 47.7993 47.9802 47.061C47.6357 46.309 47.5619 45.5078 47.7587 44.786C47.7505 44.7778 47.7423 44.7695 47.7341 44.7613C46.9494 44.9801 46.14 44.9938 45.4181 44.7887C44.8521 45.3793 44.0701 45.8086 43.206 45.9918C42.3501 46.175 41.4587 46.1012 40.6931 45.784C40.0505 46.3117 39.2193 46.6454 38.3416 46.711C37.4611 46.7848 36.5916 46.5989 35.8752 46.1887C35.3693 46.5059 34.7732 46.7055 34.1416 46.7766C33.9529 47.5258 33.5838 48.1957 33.0752 48.7098C33.3076 49.418 33.3377 50.2083 33.1545 50.9848C32.9877 51.693 32.6568 52.3301 32.203 52.8414C32.6022 53.4649 32.7389 54.2661 32.5776 55.1356C32.4108 56.0242 31.976 56.8091 31.41 57.2957C31.8639 58.2992 31.7791 59.4942 31.1557 60.5442V60.8094C31.1557 61.3426 30.9479 61.8458 30.5705 62.2231C30.1932 62.6004 29.69 62.8082 29.1569 62.8082H25.0909C23.9643 62.8082 22.9362 62.1793 22.4085 61.1649C21.9135 60.216 21.9764 59.1414 22.5698 58.2883C22.8897 57.8289 23.4694 57.3094 24.4702 57.1754C24.5194 56.5958 24.6999 56.0434 24.9979 55.5485C24.4374 54.9113 24.0874 54.1266 24.0026 53.2844C24.0026 53.2762 24.0054 53.268 24.0054 53.2598C24.0054 53.2571 24.0026 53.2544 24.0026 53.2516C23.9179 52.4067 24.1011 51.5864 24.5249 50.8836C23.9643 50.2465 23.6144 49.4618 23.5296 48.6196C23.4448 47.7747 23.628 46.9544 24.0519 46.2516C23.4886 45.6145 23.1413 44.8297 23.0566 43.9876L23.0347 43.8481C22.1214 43.9438 21.3586 43.4954 20.8363 42.5548C20.0077 42.4591 19.4089 42.1555 19.0535 41.6551C18.7609 41.245 18.6515 40.7309 18.7226 40.1212C17.8476 39.8559 17.1996 39.309 16.866 38.5379C16.4804 37.6493 16.5816 36.5664 17.1257 35.5219C16.464 35.1336 15.98 34.5731 15.7312 33.8895C15.4386 33.0911 15.5015 32.2106 15.8953 31.3712L15.3812 30.7286C10.7246 30.9008 7.6153 30.0368 5.86822 28.0926C4.91669 27.0316 4.39169 25.6371 4.27957 23.9391C4.26043 23.9117 4.24129 23.8953 4.22215 23.868C3.30614 22.952 3.14753 21.3141 4.46824 20.6441C4.98777 20.3816 5.71238 20.2012 6.35498 20.2695L9.63074 19.6324C9.6909 19.5121 9.72918 19.3808 9.74559 19.2387C8.75573 18.7055 8.17059 17.732 8.18424 16.6C8.19791 15.4844 8.76666 14.4809 9.65809 13.9285C9.43387 12.9469 9.64442 11.968 10.2569 11.2242C10.9132 10.4285 11.9331 10.0129 13.0214 10.0676C13.5355 8.98751 14.3394 8.22189 15.3238 7.88559C16.3328 7.54107 17.4703 7.65591 18.5695 8.20552C19.2831 7.50826 20.2539 7.14729 21.2683 7.19653C22.4578 7.25668 23.5516 7.84729 24.2844 8.80431C25.5421 8.53634 26.8164 8.7879 27.7078 9.50431C28.4352 10.0895 28.8371 10.9207 28.8699 11.8805C30.1059 12.3644 30.9453 13.0672 31.3719 13.9722C31.7821 14.8445 31.7985 15.8808 31.4239 17.0621C33.6551 18.5496 35.509 20.6933 35.4981 22.5691C35.4954 23.0531 35.345 23.8132 34.6176 24.4394C34.9868 24.6035 35.3286 24.814 35.6266 25.0683C36.3211 24.7866 37.1114 24.7046 37.9016 24.8359C38.6919 24.9644 39.4137 25.298 39.9825 25.7874C40.677 25.5085 41.47 25.4265 42.2575 25.555C43.0505 25.6862 43.7723 26.0171 44.3383 26.5065C45.0329 26.2276 45.8231 26.1428 46.6133 26.2741C47.4036 26.4053 48.1255 26.7362 48.6942 27.2256C49.3915 26.944 50.1817 26.8619 50.9747 26.9959C51.8032 27.1354 52.5442 27.51 53.0774 28.0514C53.6954 27.8846 54.3735 27.9092 55.0024 28.1088C55.7434 27.4526 56.4845 26.7717 57.0149 25.9733C57.6247 25.0573 57.8763 24.051 57.704 23.2143C57.5317 22.3694 56.9001 21.6257 56.0962 21.3139C55.4727 21.076 54.7892 21.1143 54.3107 21.4206C53.8403 21.7213 53.5833 22.3284 53.7228 22.7987C53.9579 23.5889 54.8876 24.0456 55.6259 24.2917C55.6642 24.3053 55.6915 24.33 55.7271 24.3491C55.7708 24.3737 55.82 24.3901 55.8556 24.4229C55.8911 24.453 55.913 24.4913 55.9404 24.5241C55.9677 24.5596 56.0005 24.5897 56.0224 24.6307C56.0443 24.669 56.0497 24.7128 56.0634 24.7565C56.0771 24.8003 56.0962 24.8413 56.0989 24.8878C56.1044 24.9288 56.0935 24.9725 56.088 25.0163C56.0853 25.0628 56.0907 25.1065 56.0771 25.1503C56.0743 25.1585 56.0716 25.1639 56.0689 25.1721V25.1776C55.7845 26.121 55.12 26.7991 54.2369 27.037C53.3181 27.2831 52.3009 27.0096 51.4833 26.2987C51.1224 26.2057 50.4661 25.9979 50.0888 25.6807C49.274 24.9999 48.8912 23.9143 49.0881 22.971C48.4783 22.2846 48.2295 21.1909 48.5029 20.2011C48.7463 19.2413 49.4244 18.4374 50.2611 18.071C50.4307 17.1932 51.0377 16.3511 51.8826 15.8698C52.6865 15.3776 53.69 15.2409 54.5486 15.4898C55.2268 14.9155 56.1975 14.6311 57.1545 14.7487C58.076 14.839 58.9565 15.312 59.5143 15.9901C60.3647 15.8972 61.3053 16.1624 62.0654 16.7284C62.8174 17.2807 63.3451 18.0956 63.5092 18.9433C64.3076 19.2604 65.0158 19.9249 65.4259 20.7698C65.847 21.6093 65.9373 22.5772 65.6912 23.403C66.2627 24.0702 66.5607 25.0054 66.4896 25.9597L66.4891 25.9653ZM60.2113 36.0249C59.9953 35.4234 59.5441 34.9311 59.0301 34.7398C58.7074 34.6194 58.5187 34.2776 58.5926 33.9386C58.7074 33.3972 58.5351 32.7546 58.1441 32.2651C57.7559 31.7702 57.1816 31.4694 56.632 31.4694C56.3176 31.4612 55.984 31.2233 55.9293 30.8788C55.8445 30.3511 55.4343 29.8315 54.882 29.5608C54.3269 29.2764 53.6734 29.2573 53.1648 29.5061C52.8531 29.6565 52.4784 29.5581 52.2816 29.2737C51.9726 28.8225 51.3956 28.4862 50.7448 28.3768C50.0804 28.262 49.4323 28.3714 48.9101 28.6776C48.6202 28.8471 48.2483 28.787 48.0269 28.5327C47.6331 28.0788 47.0507 27.7671 46.3862 27.6577C45.7218 27.5483 45.071 27.6549 44.5542 27.9585C44.2644 28.128 43.8925 28.0678 43.671 27.8135C43.28 27.3596 42.6975 27.0479 42.0331 26.9385C41.3659 26.8292 40.7179 26.9358 40.1983 27.2393C39.9085 27.4088 39.5366 27.3459 39.3151 27.0944C38.9214 26.6405 38.3417 26.3288 37.6772 26.2194C37.0237 26.11 36.3538 26.2194 35.8425 26.5202C35.5526 26.6897 35.1807 26.6295 34.9593 26.3752C34.7405 26.1209 34.4507 25.9159 34.1253 25.76C34.1116 26.3288 33.9776 26.8455 33.696 27.2913C33.1682 28.1252 32.2085 28.6749 30.8386 28.9237C30.0812 30.1569 29.1788 30.8814 28.1452 31.0811C27.9538 31.1166 27.7624 31.1357 27.5655 31.1357C26.6686 31.1357 25.7116 30.7557 24.7108 30.001C22.8897 30.34 21.8397 29.7111 21.2709 29.0986C20.2346 27.9857 19.9748 25.9951 20.56 23.8295C19.3897 22.651 19.3131 20.9639 20.3412 18.8092C20.5053 18.4592 20.9236 18.3116 21.2736 18.4783C21.6236 18.6451 21.7713 19.0608 21.6045 19.4107C20.519 21.6912 21.1916 22.5799 21.7904 23.0502C22.0201 23.2307 22.1131 23.5342 22.0256 23.8131C21.4431 25.637 21.5498 27.3377 22.299 28.1444C22.8076 28.6912 23.6225 28.8307 24.7244 28.5682C24.9349 28.5162 25.1619 28.5682 25.3287 28.7049C26.313 29.5061 27.1689 29.8424 27.8853 29.7057C28.5716 29.5744 29.2142 28.9811 29.7939 27.9447C29.9005 27.7533 30.092 27.622 30.308 27.592C31.0818 27.4853 32.0908 27.2146 32.5146 26.5447C32.799 26.0935 32.8154 25.4537 32.5611 24.6471C32.4462 24.2889 32.6376 23.9033 32.9931 23.7775C33.983 23.4275 34.1005 22.9162 34.1033 22.5662C34.1115 20.8436 31.2404 18.09 28.3036 17.0099C27.94 16.876 27.754 16.474 27.888 16.1131C28.022 15.7494 28.4267 15.5662 28.7849 15.6974C29.2497 15.867 29.72 16.083 30.1876 16.3291C30.3599 15.6373 30.3353 15.0494 30.1138 14.5763C29.8048 13.9201 29.0748 13.4033 27.9482 13.0423C27.631 12.9412 27.4314 12.6322 27.4669 12.3013C27.5435 11.5849 27.3275 10.9971 26.838 10.6033C26.2009 10.0893 25.1701 9.96072 24.213 10.2834C23.8986 10.3873 23.554 10.2588 23.3873 9.97167C22.9224 9.1732 22.0884 8.6482 21.208 8.60445C20.4506 8.56891 19.756 8.88883 19.2994 9.51772C19.0834 9.81577 18.6705 9.89507 18.356 9.69819C17.4619 9.12944 16.5486 8.95993 15.7857 9.21968C15.0475 9.47124 14.476 10.1138 14.1287 11.0763C14.0111 11.4072 13.6639 11.5958 13.3248 11.5247C12.5428 11.358 11.7854 11.5876 11.3451 12.1236C10.9295 12.6295 10.8639 13.324 11.1619 14.0322C11.2385 14.2127 11.2357 14.415 11.1564 14.5928C11.0771 14.7705 10.9268 14.9072 10.7408 14.9674C10.0736 15.1889 9.60332 15.8697 9.59509 16.6244C9.59236 16.958 9.69079 17.7729 10.6943 18.1365C10.9486 18.2295 11.1291 18.4592 11.1537 18.7299C11.2221 19.4791 11.0471 20.1408 10.6287 20.6931C10.5248 20.8299 10.3744 20.9256 10.2049 20.9584L7.75487 21.4341C8.13495 22.8259 7.04939 24.6553 5.79161 24.7728C5.97481 25.7298 6.34668 26.5255 6.92088 27.1654C8.41112 28.8279 11.2795 29.5334 15.682 29.3228C15.9281 29.3173 16.1222 29.4103 16.2617 29.5853L17.287 30.8677C17.473 31.1001 17.4921 31.4255 17.3335 31.6771C16.9589 32.2732 16.8605 32.8911 17.0519 33.4161C17.2406 33.9384 17.7081 34.3403 18.3644 34.5509C18.5804 34.6192 18.7472 34.7887 18.8156 35.0048C18.8839 35.218 18.8456 35.4532 18.7117 35.6364C18.0882 36.4759 17.8804 37.3536 18.1538 37.9853C18.4327 38.6251 19.1136 38.8275 19.6386 38.8849C19.8464 38.9067 20.0323 39.0216 20.1472 39.1966C20.262 39.3716 20.2921 39.5876 20.2292 39.7872C20.0761 40.2794 20.0652 40.6567 20.1991 40.8454C20.3441 41.0478 20.7405 41.1708 21.3175 41.19C21.591 41.1982 21.8316 41.365 21.9382 41.6138C22.332 42.5408 22.7476 42.5818 23.33 42.3329C23.5269 42.2509 23.7511 42.2591 23.9398 42.363C24.1284 42.4669 24.257 42.6501 24.2925 42.8607L24.4484 43.7985C24.5249 44.5341 24.8695 45.1712 25.4273 45.6333C25.5722 45.7536 25.6624 45.9286 25.6788 46.1145C25.6925 46.3032 25.6323 46.4892 25.5093 46.6313C25.0663 47.1372 24.8613 47.7935 24.9296 48.4771C25.0007 49.1688 25.3452 49.806 25.9003 50.2681C26.0453 50.3884 26.1355 50.5634 26.1519 50.7493C26.1656 50.938 26.1054 51.1239 25.9824 51.2661C25.5394 51.772 25.3343 52.4282 25.4027 53.1091C25.4027 53.1173 25.3999 53.1255 25.3999 53.1337C25.3999 53.1365 25.4027 53.1392 25.4027 53.1419C25.4738 53.8337 25.8183 54.4708 26.3734 54.9329C26.5183 55.0532 26.6086 55.2282 26.625 55.4142C26.6386 55.6029 26.5785 55.7888 26.4554 55.931C26.0125 56.4368 25.8074 57.0931 25.8757 57.7767C25.8949 57.9791 25.8265 58.1814 25.6871 58.3291C25.5476 58.4767 25.3398 58.5587 25.1457 58.5451C24.4675 58.5123 24.0054 58.6873 23.7265 59.0892C23.3082 59.6881 23.5406 60.2868 23.6582 60.5166C23.8824 60.9459 24.3773 61.408 25.0992 61.408H29.1652C29.3238 61.408 29.4742 61.3451 29.589 61.233C29.7011 61.1208 29.764 60.9705 29.764 60.8091V60.3415C29.764 60.2021 29.805 60.0681 29.8816 59.9533C30.4285 59.133 30.4421 58.1677 29.9117 57.4923C29.7722 57.3146 29.7257 57.0767 29.7914 56.8579C29.857 56.6392 30.0238 56.4669 30.2398 56.3958C30.5925 56.2782 31.0628 55.6657 31.2078 54.8782C31.2789 54.4872 31.3226 53.7681 30.7922 53.3278C30.6281 53.1911 30.5324 52.986 30.5379 52.7728C30.5433 52.5595 30.6472 52.3571 30.8168 52.2286C31.2953 51.8704 31.6453 51.3126 31.7957 50.6646C31.9488 50.0138 31.8859 49.3631 31.6179 48.8271C31.4675 48.5236 31.5523 48.1572 31.823 47.9548C32.3015 47.5966 32.6515 47.0388 32.8019 46.3908C32.955 45.74 32.8921 45.0893 32.6242 44.5533C32.4738 44.2498 32.5613 43.8834 32.8292 43.6783C33.3077 43.3201 33.6577 42.765 33.8109 42.1143C33.9011 41.7369 34.2757 41.5072 34.6531 41.5947C35.0305 41.6822 35.2628 42.0596 35.1726 42.437C34.9894 43.2135 34.6093 43.9081 34.0843 44.4385C34.1773 44.7256 34.2293 45.0291 34.2566 45.3354C34.6941 45.2451 35.0961 45.0729 35.4023 44.8076C35.6566 44.5861 36.034 44.5807 36.2965 44.7885C36.7996 45.1877 37.4996 45.3819 38.2269 45.3162C38.9406 45.2615 39.6187 44.9443 40.0508 44.4686C40.2723 44.2225 40.6414 44.1678 40.9285 44.3373C41.4781 44.6655 42.2192 44.7721 42.9137 44.6217C43.6328 44.4686 44.2563 44.083 44.6227 43.5607C44.8168 43.2846 45.1805 43.1861 45.4867 43.3256C45.8941 43.5115 46.3836 43.5689 46.8867 43.5088C46.791 43.2736 46.7117 43.0303 46.6625 42.7733C46.5914 42.3932 46.843 42.0295 47.223 41.9584C47.6086 41.8873 47.9695 42.1389 48.0379 42.519C48.1527 43.1397 48.4891 43.6592 48.9594 43.9408C49.2766 44.1295 49.3914 44.5342 49.2219 44.8651C48.9867 45.319 48.9977 45.9205 49.252 46.4756C49.5008 47.017 50.0012 47.4517 50.5535 47.6076C50.8953 47.7033 51.1086 48.0424 51.0539 48.3924C50.9719 48.9064 51.1742 49.4889 51.5871 49.9126C52.0246 50.383 52.6617 50.67 53.2304 50.6509C53.5504 50.6318 53.8812 50.8997 53.9332 51.247C54.0152 51.7966 54.3844 52.3325 54.8902 52.6443C55.0379 52.7345 55.1472 52.8767 55.1965 53.0435L56.6074 57.856C56.6621 58.0419 56.6375 58.2415 56.5391 58.4056C56.4406 58.5724 56.2793 58.69 56.0906 58.7337C55.7297 58.8158 55.4152 58.9333 55.1609 59.0783C54.5758 59.4146 54.4937 60.0025 54.6113 60.4427C54.7316 60.8884 55.1254 61.4107 55.8499 61.4107H60.1976C60.3671 61.2849 60.5011 61.1017 60.5585 60.9021C60.6242 60.6806 60.6077 60.451 60.512 60.2705C60.3425 59.9424 60.4574 59.5404 60.7718 59.3517C61.1355 59.133 61.3788 58.515 61.3542 57.8834C61.3488 57.1806 61.1355 56.5626 60.7581 56.1142C60.5421 55.8572 60.5394 55.4799 60.7527 55.2201C61.1409 54.7471 61.3542 54.1181 61.3542 53.4455C61.3542 52.7756 61.1436 52.1521 60.7581 51.6873C60.5448 51.4275 60.5448 51.0529 60.7581 50.7931C61.1436 50.331 61.3542 49.7076 61.3569 49.0376C61.3569 48.3677 61.1464 47.7361 60.7581 47.2603C60.5448 46.9978 60.5503 46.6204 60.7663 46.3634C61.16 45.9013 61.3843 45.2669 61.3843 44.6189C61.3843 43.9517 61.1628 43.3283 60.769 42.9044C60.5366 42.6556 60.5202 42.2728 60.728 42.0021C61.0835 41.5372 61.2448 40.8974 61.1655 40.2493C61.0889 39.5986 60.7772 39.0107 60.3315 38.6771C60.0553 38.4693 59.9733 38.0946 60.1346 37.7911C60.3999 37.288 60.43 36.6262 60.2112 36.0274L60.2113 36.0249ZM65.0922 25.872C65.1441 25.1856 64.8789 24.4884 64.4304 24.1275C64.1734 23.9197 64.0969 23.5587 64.2472 23.2634C64.5097 22.7494 64.4797 22.0138 64.1679 21.3931C63.8617 20.7615 63.2957 20.283 62.7242 20.1681C62.4015 20.1053 62.1664 19.8209 62.1609 19.4928C62.1527 18.9076 61.7863 18.2678 61.2285 17.8576C60.6625 17.4365 59.9434 17.2697 59.3965 17.4365C59.0793 17.5322 58.7403 17.3928 58.5816 17.1029C58.3027 16.5943 57.6656 16.2088 56.9984 16.1404C56.323 16.0557 55.6176 16.3072 55.2676 16.7447C55.0597 17.0045 54.6988 17.0838 54.4035 16.9306C53.8977 16.6736 53.1539 16.731 52.5934 17.0728C52.0055 17.4092 51.6008 18.0381 51.6117 18.5795C51.6172 18.9185 51.3821 19.2111 51.0512 19.2795C50.5207 19.3861 50.0176 19.9247 49.8563 20.5592C49.6868 21.1744 49.8809 21.9045 50.2801 22.167C50.5727 22.3611 50.6766 22.7412 50.5235 23.0584C50.3293 23.4548 50.4688 24.1712 50.9856 24.6033C51.1223 24.7181 51.6227 24.8931 51.9809 24.9751C52.1039 25.0025 52.216 25.0626 52.309 25.1501C52.793 25.615 53.3809 25.8119 53.8758 25.6779C54.1 25.6177 54.2887 25.4892 54.4391 25.3115C53.3563 24.8029 52.648 24.0837 52.3801 23.1923C52.0601 22.1205 52.5523 20.8763 53.5531 20.2337C54.4144 19.6841 55.5519 19.5939 56.5965 19.9986C57.8516 20.4826 58.8004 21.6037 59.0711 22.9216C59.3199 24.1384 59.0027 25.4946 58.1769 26.7388C57.6383 27.5482 56.9629 28.2153 56.2738 28.8388C56.6703 29.1943 56.9875 29.6291 57.1652 30.1076C57.9472 30.2497 58.7074 30.7118 59.2379 31.3845C59.4593 31.6607 59.6234 31.967 59.7547 32.2842C60.2632 32.0271 60.6652 31.6143 60.8348 31.1412C60.9441 30.8322 61.2558 30.638 61.5785 30.6791C62.1691 30.7502 62.8472 30.474 63.3094 29.9681C63.7715 29.4841 63.993 28.7595 63.8453 28.2372C63.7551 27.9146 63.9054 27.5728 64.2035 27.4224C64.6793 27.1817 65.0511 26.5255 65.0921 25.861L65.0922 25.872Z" fill="black"/>
</svg>
