<svg width="70" height="70" viewBox="0 0 70 70" fill="none" xmlns="http://www.w3.org/2000/svg">
<path d="M60.6491 29.3755C59.5991 24.9704 57.1054 22.1457 53.2227 20.9324C52.5938 15.4144 51.068 9.49727 44.7492 7.05019C44.4539 6.93534 44.1203 7.03379 43.9316 7.28808C43.114 8.40645 42.6382 9.63145 42.5097 10.9439C40.1664 9.16116 37.566 8.09746 34.6377 7.71741C34.263 7.66819 33.924 7.91976 33.8584 8.2889C32.8713 13.8124 35.2803 19.1692 41.23 24.6485C40.1882 26.4422 39.655 28.2661 39.6413 30.0762L37.5358 30.8665C28.9468 26.9727 19.4397 28.6297 14.3297 34.9516C12.0683 37.7489 11.0348 41.0329 11.1879 44.5194C10.827 44.4538 10.4441 44.4483 10.064 44.5222C9.21091 44.689 8.48356 45.1867 8.06519 45.8867C7.25581 47.2456 7.66597 49.1378 8.97846 50.1085C9.57456 50.5488 10.3156 50.7703 11.0648 50.7703C11.5652 50.7703 12.0683 50.6609 12.5387 50.464C13.2769 52.2796 14.3105 54.1089 15.6422 55.9109L14.8738 58.1312C14.4828 59.2687 14.6578 60.4827 15.355 61.4617C16.0523 62.4406 17.1433 63.0011 18.3437 63.0011H30.274C31.4826 63.0011 32.4834 62.0906 32.6064 60.8793C32.7404 59.5585 32.4123 58.5085 31.6248 57.7539C31.406 57.5461 31.1517 57.3629 30.8647 57.207C32.94 57.2043 34.8869 56.9035 36.5877 56.3456L38.1846 61.2265C38.5318 62.2875 39.5162 63.0011 40.6346 63.0011H45.7943C45.8381 63.0011 45.8818 62.9984 45.9228 62.9902C46.2428 62.93 46.5298 62.8097 46.7814 62.6484H51.4381C51.4846 62.6511 51.5283 62.6511 51.5748 62.6511C52.6713 62.6511 53.5244 61.9046 53.6693 60.7945C53.8443 59.4546 52.9666 57.8796 50.9705 57.2562L50.7736 52.5176C55.1048 49.9773 56.4638 45.6296 54.9326 39.2666C58.0908 38.8373 60.6337 37.2404 61.7249 35.3017C62.8296 33.3385 62.4331 31.1892 60.6421 29.3762L60.6491 29.3755ZM44.7568 8.56453C49.7634 10.7739 51.1495 15.5645 51.7679 20.5579C51.139 20.4348 50.4855 20.3446 49.7964 20.2926C48.019 16.8281 46.0694 14.1186 43.8931 12.1003C43.8083 10.8097 44.0899 9.64755 44.7571 8.56476L44.7568 8.56453ZM9.80871 48.9814C9.0841 48.4482 8.83256 47.3353 9.26731 46.6025C9.47786 46.2497 9.87433 45.9872 10.331 45.897C10.6974 45.8286 11.0446 45.8833 11.3208 46.0364C11.4657 47.0646 11.7118 48.1037 12.0563 49.1509C11.3208 49.4818 10.4185 49.4326 9.80596 48.9814L9.80871 48.9814ZM60.5097 34.6127C60.1625 35.2307 59.6101 35.8103 58.9074 36.308V34.5853L59.9054 33.6311C60.1843 33.3631 60.1952 32.9201 59.9273 32.6412C59.662 32.3623 59.2163 32.3514 58.9374 32.6193L58.1034 33.415L56.8456 32.6849C56.512 32.4908 56.0855 32.6029 55.8886 32.9393C55.6945 33.2728 55.8093 33.7021 56.1429 33.8963L57.5074 34.6893V37.0982C55.5496 37.9705 52.9519 38.3014 50.242 37.5822C49.8701 37.4838 49.4846 37.7053 49.3861 38.0799C49.2876 38.4545 49.5091 38.8373 49.8837 38.9357C51.1361 39.2693 52.3611 39.3979 53.526 39.3732C55.0107 45.3396 53.7721 49.3127 49.7307 51.5002C49.4955 51.6287 49.3533 51.8775 49.3643 52.1454L49.6022 57.8302C49.6158 58.1501 49.8455 58.4208 50.16 58.4865C51.8799 58.8419 52.3776 59.9521 52.2901 60.6111C52.2573 60.8626 52.1151 61.2919 51.4862 61.2454H47.7757C47.803 61.1224 47.8194 60.9939 47.8249 60.8626C47.8741 59.8017 47.1796 58.3579 45.1069 57.6169L44.2374 53.0505C44.1663 52.6732 43.8054 52.4271 43.4198 52.4954C43.0397 52.5665 42.7909 52.9329 42.8647 53.313L43.8108 58.2869C43.86 58.5467 44.0514 58.7545 44.3057 58.8283C45.8151 59.2576 46.4577 60.1271 46.4276 60.7943C46.4085 61.2017 46.1487 61.4998 45.7276 61.5982H40.6416C40.1303 61.5982 39.6819 61.2728 39.5205 60.7861L37.3467 54.1442C37.2264 53.7778 36.8354 53.5755 36.4635 53.6985C36.0971 53.8189 35.8974 54.2126 36.0178 54.5818L36.1599 55.0193C33.9752 55.7384 31.3147 55.9681 28.5229 55.681C29.387 54.7623 29.9968 53.6549 30.303 52.408C31.0358 49.4111 29.923 46.1844 27.3253 43.7811C27.0409 43.5186 26.6007 43.535 26.3354 43.8193C26.0729 44.1037 26.0921 44.5467 26.3737 44.8092C28.5913 46.8627 29.5538 49.5779 28.9413 52.0746C28.3863 54.3414 26.5624 56.0504 23.9402 56.7668C23.582 56.8653 23.3632 57.2235 23.4398 57.5844C23.5164 57.9454 23.8582 58.1833 24.2273 58.134C28.3562 57.5188 30.005 58.1368 30.6585 58.7629C31.1234 59.2059 31.3066 59.8512 31.2164 60.7344C31.1671 61.2266 30.7625 61.5958 30.2757 61.5958H18.3454C17.6016 61.5958 16.9263 61.2485 16.4969 60.6442C16.0649 60.0372 15.9583 59.288 16.1989 58.5825L17.0875 56.0122C17.1641 55.7907 17.1258 55.5474 16.9836 55.3615C11.7227 48.4268 11.1375 41.1264 15.4169 35.8303C20.172 29.9456 29.1328 28.4774 37.2102 32.2564C37.3797 32.3385 37.5766 32.3439 37.7516 32.2783L40.5926 31.2119C40.877 31.1053 41.0602 30.8264 41.0465 30.5229C40.959 28.6389 41.5031 26.7959 42.7145 24.8901C42.8977 24.603 42.8457 24.2229 42.5914 23.9932C36.9778 18.9565 34.5303 14.1116 35.1323 9.20282C40.7515 10.1735 45.0858 14.029 48.7252 21.2749C48.8373 21.4991 49.0615 21.6468 49.3131 21.6604C54.8693 21.9558 58.1447 24.6437 59.3266 29.8796C59.3566 30.0136 59.425 30.1339 59.5234 30.2296C60.9863 31.6351 61.3282 33.1499 60.5078 34.6074L60.5097 34.6127ZM45.7665 23.0411C46.0017 23.3474 45.9415 23.7876 45.6353 24.0227C45.5095 24.1184 45.3591 24.1649 45.2115 24.1649C45.0009 24.1649 44.7931 24.0692 44.6537 23.8915C43.7267 22.6775 43.3658 21.1626 43.1525 19.9759C43.0924 19.6423 43.0404 19.306 42.9884 18.9696C42.8408 18.0181 42.6986 17.1185 42.406 16.2599C42.1627 15.5435 41.5803 14.2528 40.4099 13.6704C40.0654 13.4981 39.9232 13.077 40.0982 12.7325C40.2705 12.388 40.6916 12.2485 41.0361 12.4208C42.2337 13.0196 43.1908 14.2228 43.7294 15.8114C44.0603 16.7821 44.2162 17.7856 44.3693 18.7536C44.4213 19.079 44.4705 19.4071 44.5279 19.7298C44.7111 20.7579 45.0173 22.0649 45.7639 23.0384L45.7665 23.0411ZM52.6545 28.994C52.6545 29.7624 52.0311 30.3885 51.26 30.3885C50.4917 30.3885 49.8655 29.7651 49.8655 28.994C49.8655 28.2257 50.489 27.5995 51.26 27.5995C52.0284 27.5995 52.6545 28.223 52.6545 28.994Z" fill="black"/>
</svg>
