<svg width="70" height="70" viewBox="0 0 70 70" fill="none" xmlns="http://www.w3.org/2000/svg">
<path d="M65.4384 18.8311L61.2274 14.6667C60.2294 13.6796 59.0016 12.9959 57.6481 12.6706C57.6235 11.4182 57.309 10.1768 56.7239 9.04753C56.5161 8.64558 56.1169 8.37489 55.6629 8.32566C55.1953 8.27371 54.7578 8.45691 54.4653 8.80691C53.9949 9.37019 53.6067 9.99913 53.2922 10.6635C49.959 10.5815 46.5932 11.5194 43.7962 13.3296C43.6075 13.4499 43.4899 13.6577 43.479 13.8819C43.468 14.1061 43.5665 14.3194 43.7442 14.4588L45.3766 15.7358L39.9571 18.6862C39.7629 18.7928 39.629 18.987 39.6016 19.2057C39.5743 19.4245 39.6508 19.646 39.8149 19.7991L41.5704 21.4534L38.0594 24.2534C37.7805 24.4776 37.7149 24.8768 37.9118 25.1776C38.9016 26.6761 40.3973 27.8518 42.079 28.5054C40.329 29.3995 38.3028 29.7631 36.4571 29.673C35.9157 29.6456 35.3716 29.5991 34.8274 29.5526C33.5039 29.4405 32.1313 29.323 30.7559 29.4788C29.1153 29.6647 27.6086 30.2362 26.2852 31.0839C25.6125 29.4104 24.0348 28.0433 21.9348 27.3652C17.7539 26.0117 12.8406 27.7972 10.4997 31.5187C10.0239 32.2761 9.66022 33.0827 9.30748 33.8648C8.92467 34.7097 8.56647 35.5081 8.08248 36.2328C7.25397 37.4714 5.79109 38.5543 4.38286 38.1851C4.10942 38.1113 3.81685 38.2152 3.64734 38.4449C3.47783 38.6746 3.46687 38.9808 3.61726 39.2242C4.62899 40.8429 6.35712 42.0242 8.23288 42.3796C8.64851 42.4589 9.06962 42.4972 9.49067 42.4972C10.9837 42.4972 12.4848 42.0187 13.6824 41.1327C14.8309 40.2851 15.6485 39.1394 16.4414 38.032L16.6137 37.7914C17.3876 36.714 18.2352 35.6121 19.3426 34.9695C20.2777 34.4281 21.6504 34.1929 22.602 34.8902C22.6156 34.8984 22.6293 34.9011 22.643 34.9093C21.4262 37.0011 20.8246 39.514 21.1035 42.1392C21.1363 42.4481 21.6203 44.1243 22.0031 45.4204L18.3774 46.6946C17.8305 46.886 17.3656 47.2689 17.0758 47.772L13.1547 54.5369L10.5953 54.6408C10.2563 54.6545 9.97736 54.9115 9.93635 55.2478L9.24183 60.8998C9.21175 61.1404 9.31019 61.3783 9.49886 61.5287C9.62464 61.6271 9.77503 61.6791 9.92816 61.6791C10.0102 61.6791 10.0895 61.6654 10.1688 61.6353L16.5178 59.2865C16.6654 59.2318 16.7885 59.1279 16.8705 58.9939L21.0213 52.1141C24.4228 54.1594 28.7761 53.443 31.4064 50.3148C32.4345 49.1801 33.2904 47.7965 34.0423 46.2871C35.6447 46.5687 37.2689 46.7164 38.8958 46.7164C42.9455 46.7164 46.9873 45.8496 50.6512 44.1598C53.0875 44.9965 55.4254 45.1278 56.6998 45.1086L55.2177 49.5575L52.3576 50.4872C52.0732 50.5802 51.8791 50.8454 51.8791 51.1462V56.7134C51.8791 56.954 52.0049 57.1782 52.2072 57.304C52.3166 57.3724 52.4451 57.4079 52.5709 57.4079C52.6775 57.4079 52.7842 57.3833 52.8826 57.3341L58.4225 54.556C58.5756 54.4794 58.6959 54.3482 58.7561 54.1896L63.1994 42.8117C63.4018 42.2921 63.3908 41.7261 63.1721 41.2148L62.5131 39.6945C62.2834 39.164 61.8377 38.7484 61.2936 38.5543L57.2741 37.1241C57.285 37.0968 57.3014 37.0749 57.3096 37.0476C57.9659 34.2476 58.0725 31.3902 57.6323 28.5461L56.8174 23.3125C58.2721 23.75 59.4369 23.4574 60.0221 23.2359L61.3893 24.1027C62.8768 25.0461 64.8538 24.6632 65.8929 23.2332C66.8471 21.9179 66.653 20.0203 65.4444 18.8254L65.4384 18.8311ZM39.4345 24.9258L43.0521 22.0383C43.2107 21.9125 43.3037 21.7266 43.3119 21.5242C43.3201 21.3219 43.2408 21.1305 43.0931 20.991L41.4525 19.4434L46.9595 16.4465C47.1646 16.3344 47.2986 16.1266 47.3177 15.8942C47.3369 15.6618 47.2384 15.4348 47.0552 15.2899L45.3872 13.9829C47.6321 12.7333 50.1997 12.0579 52.7676 12.0442C52.6773 12.3642 52.5953 12.6895 52.5406 13.0177C48.6168 14.0595 47.6707 17.8822 46.8312 21.2701C46.5578 22.3694 46.3008 23.4111 45.959 24.308C45.4477 25.6424 44.611 26.7006 43.591 27.5181C41.975 27.1545 40.4684 26.2166 39.432 24.9205L39.4345 24.9258ZM18.6451 33.7691C17.2998 34.5484 16.3455 35.7844 15.4841 36.982L15.3091 37.2254C14.5462 38.2918 13.8244 39.298 12.8536 40.0199C11.6232 40.9304 9.99076 41.305 8.48687 41.0207C7.44235 40.8238 6.45798 40.307 5.68139 39.5769C7.12788 39.2925 8.42667 38.2124 9.23062 37.0093C9.77749 36.189 10.1795 35.3003 10.5677 34.439C10.9177 33.6652 11.2459 32.9351 11.6697 32.2598C13.6494 29.1125 17.9645 27.543 21.5024 28.6859C22.9379 29.1508 24.6196 30.2499 25.1118 31.9453C24.4774 32.4812 23.8977 33.0855 23.3945 33.7527C21.9371 32.7054 19.9602 33.0007 18.6449 33.7636L18.6451 33.7691ZM11.235 56.0023L12.1346 55.9668L11.9733 59.4914L10.751 59.9426L11.235 56.0023ZM53.2595 51.6574L54.2275 51.343L54.8209 54.8156L53.2595 55.5976V51.6574ZM64.7634 22.4266C64.1564 23.266 62.997 23.493 62.1248 22.9406L60.4431 21.8742C60.2299 21.7375 59.951 21.7321 59.7295 21.8578C59.6693 21.8907 58.2174 22.6754 56.2678 21.5926C56.0381 21.4641 55.751 21.4778 55.535 21.6309C55.3162 21.7813 55.2069 22.0438 55.2451 22.3063L56.2514 28.7679C56.6615 31.4092 56.5658 34.0671 55.9643 36.6703L54.7694 36.2464C54.4084 36.1179 54.012 36.3066 53.8834 36.6675C53.7549 37.0285 53.9436 37.4249 54.3045 37.5535L60.818 39.8723C61.0039 39.9379 61.1543 40.0801 61.2336 40.2605L61.8899 41.7808C61.9664 41.9531 61.9692 42.1472 61.9008 42.3222L57.5532 53.4511L56.1122 54.1729L55.5544 50.9163L55.9672 50.7823C56.1751 50.714 56.3391 50.5526 56.4102 50.3421L58.3242 44.6026C58.3981 44.3784 58.3543 44.1323 58.2067 43.9491C58.059 43.7659 57.8266 43.6702 57.5942 43.6921C57.5504 43.6975 53.2574 44.1077 49.4596 42.1882C49.1178 42.0159 48.6994 42.1526 48.5272 42.4944C48.3549 42.8362 48.4916 43.2518 48.8334 43.4268C48.8389 43.4296 48.8444 43.4323 48.8471 43.4323C44.3819 45.2178 39.4158 45.7702 34.6418 45.0018C35.3144 43.4815 35.9023 41.8737 36.4437 40.2768C36.5668 39.9131 36.3727 39.5221 36.009 39.3991C35.6453 39.276 35.2543 39.4702 35.1312 39.8338C33.9226 43.4022 32.509 47.0333 30.3515 49.4157C28.0164 52.191 24.0819 52.6969 21.1996 50.5887C21.041 50.4738 20.8441 50.4301 20.6527 50.4684C20.4613 50.5067 20.2973 50.6242 20.1961 50.791L15.7992 58.0809L13.382 58.9751L13.5215 55.9181L13.5843 55.9153C13.8222 55.9044 14.0382 55.7759 14.1558 55.5708L18.2683 48.4751C18.3941 48.2564 18.5937 48.0923 18.8316 48.0103L23.0808 46.5173C23.4308 46.3943 23.6222 46.0196 23.5156 45.6642C23.0371 44.0564 22.5148 42.2407 22.4766 41.9974C21.8887 36.4575 25.6703 31.4647 30.9069 30.8662C32.1429 30.724 33.387 30.8307 34.7022 30.9428C35.26 30.9893 35.8206 31.0385 36.3811 31.0658C40.51 31.2737 45.4922 29.4225 47.2527 24.8148C47.6273 23.836 47.8925 22.7586 48.1769 21.6156C48.9863 18.3398 49.8257 14.9545 53.2956 14.2767C53.5964 14.2193 53.8206 13.9704 53.8535 13.6669C53.9984 12.2314 54.5917 10.8232 55.4886 9.69665C56.0519 10.7849 56.3171 11.999 56.2487 13.2076C56.2296 13.5631 56.4812 13.8748 56.8312 13.9295C58.13 14.1373 59.3113 14.7334 60.2492 15.6604L64.4601 19.8248C65.1875 20.5467 65.3187 21.6678 64.7609 22.4334L64.7634 22.4266ZM59.2291 17.0672C59.2291 17.6414 58.7642 18.1062 58.19 18.1062C57.6158 18.1062 57.151 17.6414 57.151 17.0672C57.151 16.493 57.6158 16.0282 58.19 16.0282C58.7642 16.0282 59.2291 16.493 59.2291 17.0672Z" fill="black"/>
</svg>
