<svg width="98" height="25" viewBox="0 0 98 25" fill="none" xmlns="http://www.w3.org/2000/svg">
<mask id="mask0_227_2612" style="mask-type:luminance" maskUnits="userSpaceOnUse" x="0" y="0" width="98" height="25">
<path d="M0.573486 0.641846H97.4188V24.3307H0.574563L0.573486 0.641846Z" fill="white"/>
</mask>
<g mask="url(#mask0_227_2612)">
<path d="M44.1061 0.651651C44.7274 0.554742 45.381 0.587045 45.9625 0.830394C46.7613 1.16136 47.4006 1.78941 47.7456 2.58229C48.1009 3.40925 48.1009 4.38264 47.7456 5.2096C47.5322 5.70069 47.2039 6.13325 46.7882 6.47077C46.3725 6.80829 45.8818 7.04086 45.3573 7.14885C44.0006 7.44173 42.5158 6.73537 41.8546 5.51109C41.3055 4.52908 41.2979 3.25527 41.8622 2.28187C42.0958 1.86381 42.4174 1.50151 42.8049 1.22003C43.1924 0.938548 43.6363 0.744615 44.1061 0.651651ZM43.3793 1.76287C42.701 2.24203 42.3704 3.10129 42.4102 3.92071C42.912 3.10237 43.6302 2.37124 44.5498 2.05468C45.002 1.87701 45.4866 1.83609 45.9625 1.78764C45.5932 1.50307 45.1412 1.34669 44.6751 1.34222C44.2089 1.33775 43.754 1.48544 43.3793 1.76287ZM2.74436 8.15563C4.72238 8.47973 6.68317 8.88567 8.65257 9.21732C9.98453 9.44452 11.3876 9.89891 12.2759 10.9864C13.1718 12.0815 13.301 13.5901 13.1481 14.9446C13.0425 16.016 12.6635 17.1272 11.8323 17.8411C11.0333 18.555 9.92746 18.7898 8.88623 18.7822C8.1978 18.7431 7.5113 18.6752 6.82853 18.5787C6.82853 19.901 6.83715 21.2232 6.83715 22.5455C5.45432 22.3707 4.07866 22.1434 2.71313 21.8639C2.72067 17.2974 2.7196 12.7222 2.74436 8.15563ZM6.90175 12.7793C6.90175 13.6622 6.8856 14.5473 6.89421 15.4313C7.28185 15.4798 7.70179 15.553 8.07219 15.3743C8.37154 15.245 8.54813 14.9371 8.60519 14.6205C8.68595 14.1414 8.6375 13.5825 8.27463 13.225C7.91068 12.8686 7.3863 12.7943 6.90175 12.7793ZM14.0192 10.5159C16.416 10.7506 18.8215 10.994 21.226 11.1081C21.6211 11.1157 22.0174 11.1243 22.405 11.1652C22.3803 12.2269 22.3803 13.2972 22.3727 14.361C21.0806 14.361 19.7982 14.2146 18.5071 14.1823C18.5147 14.7497 18.4576 15.3258 18.4662 15.8943C19.7013 15.9019 20.9352 16.072 22.1789 16.0483C22.1864 17.0379 22.1466 18.0274 22.1627 19.017C20.9438 19.0256 19.7249 18.9114 18.506 18.8953C18.4985 19.5123 18.506 20.1282 18.5147 20.7527C18.8538 20.7613 19.193 20.7613 19.5311 20.7775C20.5002 20.8582 21.4844 20.8259 22.4535 20.8905C22.461 21.9296 22.4212 22.9751 22.4212 24.0131C19.5473 24.0379 16.6906 23.8032 13.834 23.576C13.8501 22.132 13.8501 20.6881 13.8986 19.2442C13.9223 16.3477 14.0116 13.4361 14.0192 10.5159ZM23.5022 11.1889C26.585 11.3353 29.6764 11.2696 32.7517 11.0834C32.784 12.2355 32.8076 13.3876 32.799 14.5398L32.743 14.5796C31.9663 14.6363 31.186 14.6769 30.4022 14.7013C30.4183 16.0882 30.3946 17.4686 30.4431 18.8544C30.4506 20.5987 30.4431 22.3345 30.4668 24.0702C28.9098 24.2651 27.3355 24.2091 25.7699 24.1521C25.7538 20.9971 25.7861 17.8325 25.7624 14.6765C24.9946 14.669 24.2204 14.669 23.4538 14.6119C23.4613 13.4684 23.4538 12.3324 23.5022 11.1889ZM13.2364 4.32557C15.9401 2.91501 18.8937 1.85978 21.9603 1.7058C24.1634 1.6089 26.4074 2.0719 28.3197 3.1982C30.5884 4.52047 32.3231 6.62231 33.4849 8.95889C33.7595 9.5425 34.0341 10.1336 34.2193 10.7506C33.9533 10.4427 33.7197 10.11 33.4526 9.802C30.3537 6.17546 25.8431 3.72582 21.0731 3.3931C18.4339 3.15836 15.7786 3.57938 13.2364 4.32557ZM38.0289 5.88365C38.6911 5.29897 39.4179 4.77243 40.2158 4.39879C40.2158 4.77997 40.2406 5.16976 40.3773 5.53478C40.4904 5.97302 40.7886 6.32943 41.0794 6.67077C39.2639 7.22207 37.666 8.3656 36.4471 9.80954C35.7612 10.588 35.2121 11.4731 34.7361 12.3895C34.7447 12.2021 34.7609 12.0158 34.7932 11.8371C35.2207 9.58234 36.3179 7.4245 38.0289 5.88258M65.5822 8.1061C67.0574 8.04903 68.5433 8.00919 70.0207 8.00919C71.1017 11.5862 72.2388 15.1395 73.3296 18.7079C73.5557 19.4714 73.8055 20.2176 74.0079 20.9874C73.4178 20.9961 72.8288 20.9228 72.2312 20.9476C71.5529 20.9314 70.8594 21.0768 70.1972 20.9067C70.0443 20.476 69.9388 20.0227 69.7698 19.6006C68.5595 19.6167 67.3578 19.6813 66.1464 19.7061C66.0334 20.1691 65.9042 20.6386 65.7997 21.1016C64.92 21.1909 64.0317 21.1339 63.152 21.2071C62.7493 21.2394 62.3444 21.2308 61.9417 21.2394C63.1369 16.8591 64.4118 12.495 65.5811 8.1061M67.8477 13.4113C67.5428 14.4986 67.2578 15.5913 66.9928 16.689C67.6065 16.6965 68.2203 16.6567 68.833 16.6244C68.4938 15.5605 68.1955 14.4741 67.8477 13.4113ZM74.8704 8.1061C76.8883 8.17932 78.8975 8.25254 80.9078 8.45497C82.271 8.63371 83.6191 9.26577 84.4418 10.4018C85.2569 11.513 85.4432 12.9569 85.2978 14.2953C85.1933 15.245 84.9026 16.2421 84.1844 16.9162C83.926 17.1832 83.5944 17.3695 83.2724 17.5569C84.2889 19.073 85.3613 20.5578 86.3552 22.09C84.628 21.8715 82.9009 21.6292 81.1652 21.4741C80.4308 20.2822 79.7449 19.0729 78.9621 17.9057C78.8813 18.3752 78.9137 18.8619 78.9061 19.3325C78.8961 19.9498 78.8907 20.5664 78.89 21.1823C78.2278 21.1576 77.5742 21.0768 76.9119 21.0531C76.1937 20.9713 75.4594 21.0122 74.7412 20.9314C74.7573 18.8867 74.7821 16.8344 74.7821 14.7907C74.8467 12.5671 74.8629 10.3372 74.8704 8.1061ZM79.0429 12.0567C78.9783 12.9332 78.9869 13.8086 78.9869 14.6927C79.3896 14.7336 79.8181 14.7982 80.1896 14.6033C80.4631 14.4741 80.6419 14.1984 80.714 13.9066C80.8346 13.3952 80.7625 12.7782 80.3339 12.4207C79.9786 12.1138 79.494 12.0729 79.0429 12.0567ZM56.0582 8.85229C57.3977 8.75539 58.7297 8.58526 60.0778 8.50342C60.2878 11.1157 60.5623 13.7279 60.7637 16.3401C60.9328 17.9951 61.0458 19.649 61.231 21.2965C59.7857 21.3643 58.3431 21.4806 56.9056 21.6453C56.7603 21.3762 56.8249 21.0445 56.7926 20.7516C56.7204 19.5521 56.6795 18.3504 56.5826 17.1595C55.9936 18.6993 55.3723 20.2251 54.7909 21.7584C54.7672 21.8962 54.6294 21.9199 54.5174 21.9371L52.7978 22.2042C52.1926 20.729 51.6273 19.228 51.0061 17.7593C50.8445 19.3411 50.7638 20.9314 50.6346 22.5208C49.1583 22.7404 47.681 22.9913 46.1961 23.2185C46.349 21.3525 46.5999 19.495 46.7851 17.6301C47.0597 15.0986 47.358 12.5757 47.6089 10.0454C48.9074 9.84184 50.2071 9.62326 51.5143 9.42083C51.6435 9.37129 51.6758 9.5425 51.7243 9.62326C52.4511 11.4484 53.0401 13.3219 53.8067 15.1309C54.6057 13.0635 55.2431 10.9208 56.0582 8.85337M86.17 9.13656C89.2926 9.24962 92.4001 9.64695 95.4743 10.2069C95.4905 11.5614 95.4829 12.9246 95.4829 14.2792C94.6915 14.15 93.9087 13.9788 93.1097 13.9142C93.0936 16.9722 92.9891 20.0227 92.9644 23.0807C91.5118 22.8545 90.0506 22.6263 88.5905 22.4648C88.5744 19.4304 88.6713 16.3961 88.6713 13.3704C87.84 13.2821 87.0088 13.1604 86.1775 13.0872C86.1775 11.7563 86.1775 10.4427 86.1689 9.13548M37.5206 10.8077C39.0776 9.93121 40.9501 9.77724 42.6859 10.1261C43.5258 10.3049 44.3398 10.6042 45.1226 10.9617C44.7511 12.0729 44.3 13.1594 43.9037 14.263C42.8959 13.9142 41.8471 13.5976 40.7649 13.6547C40.3612 13.687 39.8368 13.9228 39.8529 14.4009C39.8615 14.7745 40.2642 14.9199 40.5636 14.9845C41.8299 15.286 43.2178 15.455 44.2429 16.3401C45.0095 16.9646 45.4219 17.9617 45.4133 18.9437C45.4655 20.0033 45.1523 21.0486 44.5261 21.9048C43.6701 23.0721 42.3144 23.7946 40.9189 24.0864C39.5062 24.4029 38.0289 24.2242 36.6409 23.8753C35.8061 23.6573 34.9991 23.3444 34.2354 22.9428C34.7684 21.7013 35.2928 20.4684 35.842 19.2355C36.8757 19.9656 38.1258 20.3791 39.3931 20.3306C39.756 20.3058 40.2158 20.2499 40.3945 19.8762C40.4591 19.6415 40.4591 19.3163 40.233 19.1623C40.0748 19.0634 39.8995 18.9948 39.7162 18.9599C38.8601 18.7661 37.9718 18.7004 37.1653 18.3429C36.3502 17.9865 35.5997 17.3781 35.2368 16.5426C34.8492 15.6661 34.889 14.6604 35.1313 13.7516C35.4705 12.4702 36.3911 11.4236 37.5206 10.8077ZM93.7396 21.8887C94.0218 21.8316 94.3771 21.8801 94.5386 22.1557C94.797 22.5294 94.6032 23.1377 94.1423 23.2508C93.7224 23.3886 93.2389 23.0247 93.2712 22.5778C93.2634 22.4276 93.3049 22.2789 93.3895 22.1544C93.4741 22.03 93.597 21.9367 93.7396 21.8887ZM93.9658 21.9694C93.6341 21.9694 93.3606 22.3097 93.4166 22.6424C93.4328 23.0893 94.0465 23.3165 94.3448 22.9838C94.684 22.65 94.4578 21.9694 93.9658 21.9694Z" fill="#190A05"/>
<path d="M93.6913 22.1482C93.8689 22.1557 94.0542 22.188 94.2318 22.2203C94.2232 22.4885 94.2232 22.7566 94.2232 23.0236C94.1263 22.8858 94.038 22.7404 93.9411 22.6015C93.8621 22.7494 93.7789 22.893 93.6913 23.0322C93.6827 22.7404 93.6827 22.44 93.6913 22.1482ZM93.8366 22.2699V22.5369C93.9012 22.5294 94.0218 22.5208 94.0865 22.5132V22.2936C94.0218 22.2936 93.9012 22.2774 93.8366 22.2699Z" fill="#190A05"/>
</g>
</svg>
