<svg width="351" height="76" viewBox="0 0 351 76" fill="none" xmlns="http://www.w3.org/2000/svg">
<path d="M313.372 54.825C306.841 54.825 303.638 48.3036 302.773 41.2069L323.78 34.2699C322.945 26.0542 318.174 19.3091 309.787 19.3091C300.468 19.3091 293.776 28.3559 293.776 41.3029C293.776 53.2265 300.468 61.3465 310.298 61.3465C317.342 61.3465 322.339 57.2866 324.547 49.6782L321.504 48.5915C319.807 52.6193 317.12 54.825 313.372 54.825ZM308.985 22.9214C312.282 22.9214 314.076 25.8943 314.652 32.0642L302.549 36.124C302.773 29.187 305.174 22.9214 308.985 22.9214ZM273.733 2.71753H254.681V5.85001C259.099 6.52147 259.932 8.88713 259.932 13.3945V24.1995C253.24 20.8111 245.619 22.6649 244.754 28.7708C244.499 31.648 246.099 34.0136 248.661 34.5252C251.191 35.0364 253.816 33.2462 254.168 30.7209C254.425 28.7711 253.816 27.1726 252.215 25.894C254.168 25.2865 257.05 26.5011 259.932 28.7708V49.7415C259.932 55.24 258.395 57.35 254.681 57.35V60.5788H276.102V57.35C270.755 57.35 269.762 54.8244 269.762 49.5819V33.9177C281.289 37.8176 295.506 33.4062 295.506 19.6281C295.506 13.2986 293.393 2.71723 273.733 2.71723M275.077 29.6976C273.22 29.6976 271.427 29.346 269.73 28.6106V6.16959H271.331C279.72 6.16959 284.203 10.2294 284.203 18.7007C284.235 26.8204 280.937 29.6976 275.077 29.6976ZM232.587 49.4856V19.2122H229.545L226.247 23.368C223.782 21.0024 220.74 19.4681 216.673 19.3082C206.427 18.8926 197.942 27.3322 198.198 40.6305C198.454 52.0429 204.73 61.09 214.976 61.5375C219.395 61.6972 223.461 59.939 225.895 56.7102V61.4415H228.264L238.191 58.0529V55.2716C233.772 55.2397 232.587 53.897 232.587 49.4856ZM217.506 57.6053C212.927 57.7653 209.02 52.1069 208.604 40.4388C208.348 29.0904 211.838 23.432 216.481 23.2721C221.156 23.1764 224.614 28.2593 224.71 39.9273C225.126 51.5954 222.052 57.4457 217.506 57.6053ZM104.924 19.2762C94.5817 19.2762 87.217 28.0034 87.217 40.2469C87.217 52.5864 94.5817 61.3136 104.924 61.3136C115.267 61.3136 122.631 52.5864 122.631 40.2469C122.631 28.0034 115.266 19.2762 104.924 19.2762ZM105.5 57.4454C100.922 57.6053 98.456 52.0429 98.0399 40.5345C97.6234 29.0264 99.7368 23.368 104.316 23.2081C108.894 23.0485 111.36 28.355 111.776 40.0553C112.193 51.5314 110.079 57.2857 105.5 57.4454ZM82.4799 47.6318V0H80.1103L68.5833 4.41142V6.77708L73.2582 8.37561V22.2497C70.5364 20.1396 68.1671 19.3725 65.0292 19.3725C55.551 19.3725 48.9229 28.8348 48.9229 41.7818C48.9229 52.6827 54.8466 61.4099 63.0757 61.4099C66.7261 61.4099 69.7681 60.1309 73.4182 56.6786V61.4099H75.7878L86.7064 57.6056V55.24C83.1523 54.9204 82.4799 53.8014 82.4799 47.6318ZM73.2262 52.3628C71.1768 54.3129 69.3196 55.08 67.2062 55.08C61.699 55.08 58.657 49.166 58.657 37.0505C58.657 28.5792 61.9552 23.3364 66.2137 23.3364C70.4405 23.3364 73.2582 26.7251 73.2582 32.7347V52.3628H73.2262ZM44.9185 48.6548L32.1105 2.71723H21.9602L22.9848 6.68111L13.7631 36.8905C7.16733 34.6848 2.84426 29.8578 3.10048 23.1764C3.77285 24.1995 5.05363 24.711 5.72631 24.775C8.25587 25.1905 10.8171 23.4963 11.2336 20.9707C11.6497 18.3494 9.95281 15.8878 7.32728 15.4723C5.27786 15.0567 2.4281 16.2397 1.21131 19.1166C-2.02262 26.6611 1.11534 37.9775 11.874 42.8045L10.8494 46.2572C8.22358 54.7924 7.03907 56.4229 4.2533 57.6056V60.5788H18.9825V57.6056C17.0291 57.0941 15.6843 55.9114 14.916 54.6328C13.9874 52.9383 13.8911 50.477 14.8197 47.2802L15.7483 44.1474C20.4232 45.4261 26.251 45.49 33.1993 44.0515C35.0565 50.9885 35.6649 51.7556 35.0565 53.8654C34.3841 56.0711 32.7828 57.1581 31.0859 57.5736V60.5468H50.3938V57.5736C47.9925 56.9345 46.5515 54.3129 44.9185 48.6548ZM17.7337 37.8176L24.9382 13.7141L31.2781 36.7949C26.4432 38.0735 21.8003 38.4251 17.7337 37.8176ZM147.287 19.2768C141.94 19.2768 138.386 22.5056 136.688 24.1678V19.3405H134.671L123.56 23.7519V26.1179L127.531 27.8121V63.5839C127.531 70.7765 126.602 72.7906 123.112 72.8863V75.8594H140.819V72.8863C137.585 72.8863 136.656 70.8405 136.656 63.5839V58.2451C138.706 59.7796 141.235 61.2822 145.462 61.2822C155.036 61.2822 162.593 52.3311 162.593 39.5441C162.625 28.7711 156.957 19.2768 147.287 19.2768ZM143.797 57.446C138.802 57.446 136.688 52.555 136.688 46.705V28.7711C137.617 27.8441 139.474 26.0536 142.868 26.0536C148.472 26.0536 151.77 31.5523 151.77 41.9417C151.77 49.7418 149.817 57.446 143.797 57.446ZM179.337 55.7192C176.167 55.3676 175.943 52.1389 175.943 48.3026V23.7836H183.628V20.0433H175.943V9.17442H173.029C170.051 15.376 167.329 18.5411 162.463 20.9067V23.8156H166.977V47.3756C166.977 56.9022 170.467 61.6012 177.704 61.6012C183.243 61.6012 186.83 57.7653 188.623 49.9332L185.549 48.7502C184.012 53.7691 181.898 56.0708 179.337 55.7192ZM347.924 48.7502C346.385 53.7691 344.271 56.0708 341.712 55.7192C338.54 55.3676 338.284 52.1389 338.284 48.3026V23.7836H345.968V20.0433H338.284V9.17442H335.372C332.392 15.376 329.672 18.5411 324.803 20.9067V23.8156H329.318V47.3756C329.318 56.9022 332.81 61.6012 340.045 61.6012C345.584 61.6012 349.17 57.7653 350.964 49.9332L347.924 48.7502Z" fill="#170B06"/>
</svg>
