<svg width="74" height="23" viewBox="0 0 74 23" fill="none" xmlns="http://www.w3.org/2000/svg">
<path fill-rule="evenodd" clip-rule="evenodd" d="M28.8508 13.4791V9.03801C28.8508 6.32194 27.5852 5.11674 25.792 5.11674C24.1955 5.11674 22.8881 6.12432 22.375 6.73957V5.11674H21.7861L18.5404 6.39787V7.09003L19.7183 7.59431V14.9491C19.7183 15.8545 19.3426 16.2127 18.3944 16.2127C17.4462 16.2127 17.0704 15.8545 17.0704 14.9491V5.11674H16.3111L13.2348 6.39787V7.09003L14.4137 7.59431V15.3502C14.4137 15.7941 14.2687 15.9995 14.038 15.9995C13.8676 15.9995 13.6622 15.871 13.4227 15.5809L7.41033 7.75591L10.8614 4.22014C12.5105 2.52819 13.1589 2.02489 13.7235 1.82824C13.7138 1.90515 13.706 1.98205 13.706 2.06675C13.706 3.24566 14.6717 3.83561 15.4145 3.83561C15.642 3.83862 15.8678 3.79603 16.0786 3.71035C16.2893 3.62468 16.4808 3.49765 16.6417 3.33677C16.8026 3.17589 16.9296 2.98442 17.0153 2.77365C17.1009 2.56288 17.1435 2.33708 17.1405 2.10958C17.1395 0.931644 16.1738 0 14.7136 0C13.5084 0 12.0559 0.649327 10.0748 2.61386L4.93277 7.66245V3.91251C4.93277 1.68319 5.1888 1.2383 6.46993 1.08448V0.230721H0.551022V1.09325C1.94313 1.23927 2.1135 1.68319 2.1135 4.06633V13.5648C2.1135 15.7172 1.94216 16.0511 0.550049 16.2225V17.084H6.46896V16.2215C5.1888 16.0511 4.93277 15.5887 4.93277 13.3944V9.28626L10.8351 17.084H23.5802V16.2215C22.5464 16.1621 22.375 15.7172 22.375 13.4791V8.08982C22.8793 7.60307 23.6571 7.09879 24.6044 7.09879C25.9546 7.09879 25.9546 8.3624 25.9546 9.81487V13.4791C25.9546 15.7085 25.7843 16.1534 24.8351 16.2215V17.084H30.166V16.2215C29.064 16.1534 28.8508 15.7172 28.8508 13.4791ZM36.4782 10.7631L34.4796 9.32812C33.4886 8.61065 33.1303 7.93601 33.1303 7.3889C33.1303 6.73957 33.6765 6.29565 34.2664 6.29565C35.1542 6.29565 36.0168 7.09879 36.6924 8.55029H37.5549V5.85173C36.5255 5.36969 35.4031 5.11882 34.2664 5.11674C32.113 5.11674 30.6187 6.68019 30.6187 8.42276C30.6187 9.45662 31.1483 10.5499 32.3866 11.4377L34.0698 12.6419C35.3168 13.5307 35.7344 14.3086 35.7344 14.9394C35.7344 15.7182 35.0433 16.2215 34.3423 16.2215C33.0962 16.2215 32.3437 15.359 31.6009 13.3175H30.8231V16.5632C31.5153 17.0928 32.8655 17.4092 34.0698 17.4092C36.8121 17.4092 38.2383 15.7435 38.2383 13.9493C38.2471 12.8045 37.6571 11.609 36.4782 10.7631ZM54.451 2.05896C54.451 3.21159 53.571 3.82685 52.7688 3.82685C51.7953 3.82685 51.0165 2.9468 51.0165 2.05896C51.0165 1.08546 51.8031 0.393296 52.7688 0.393296C53.7336 0.393296 54.451 1.19644 54.451 2.05896ZM54.0753 13.4782V5.11577H53.3159L50.2397 6.39787V7.09003L51.4186 7.59431V14.9491C51.4186 15.8545 51.0428 16.2127 50.0946 16.2127C49.1464 16.2127 48.7706 15.8545 48.7706 14.9491V9.02925C48.7706 6.31318 47.5061 5.10798 45.7129 5.10798C44.1153 5.10798 42.8079 6.11653 42.2959 6.73081V0.230721H41.6212L38.2724 1.55469V2.16994L39.6392 2.61386V13.4879C39.6392 15.7172 39.3403 16.1621 38.3152 16.2303V17.0928H43.5001V16.2303C42.4662 16.1699 42.2959 15.726 42.2959 13.4879V8.08982C42.8001 7.60307 43.577 7.09879 44.5252 7.09879C45.8754 7.09879 45.8754 8.3624 45.8754 9.81487V13.4791C45.8754 15.7085 45.7041 16.1534 44.7559 16.2215V17.084H55.3992V16.2215C54.2797 16.1534 54.0753 15.7163 54.0753 13.4782ZM59.2261 6.52637C59.7557 6.0221 60.7467 5.11674 62.3267 5.11674C65.1372 5.11674 66.7522 7.91848 66.7347 10.9938C66.7347 14.7272 64.5054 17.4004 61.8059 17.4004C60.6026 17.4004 59.9572 16.9662 59.3692 16.571L59.2173 16.4697V17.9894C59.2173 20.2284 59.4315 20.6724 60.3368 20.7317V21.5865H55.4499V20.723C56.3562 20.6548 56.5694 20.2109 56.5694 17.9816V7.59333L55.3914 7.08906V6.39787L58.6371 5.11577H59.2261V6.52637ZM59.2348 13.1462C59.2348 14.8294 59.8676 16.1787 61.2763 16.1787C63.087 16.1787 63.6166 13.9834 63.6166 11.7541C63.6166 8.67879 62.6694 7.05596 61.0465 7.05596C59.9951 7.05596 59.4656 7.58555 59.2348 7.91848V13.1462Z" fill="#190A05"/>
<path d="M67.1885 0.179199H69.9318V0.490721H68.7665V3.22627H68.3538V0.490721H67.1885V0.179199ZM70.3864 0.179199H70.9491L72.0482 2.72589H72.093L73.1892 0.179199H73.7538V3.22627H73.3644V0.77109H73.3186L72.2604 3.22627H71.8778L70.8196 0.77109H70.7749V3.22627H70.3864V0.179199Z" fill="#190A05"/>
</svg>
