<svg width="44" height="32" viewBox="0 0 44 32" fill="none" xmlns="http://www.w3.org/2000/svg">
<mask id="mask0_227_2619" style="mask-type:luminance" maskUnits="userSpaceOnUse" x="0" y="0" width="44" height="32">
<path d="M0.754639 0.570068H43.6643V31.1761H0.754639V0.570068Z" fill="white"/>
</mask>
<g mask="url(#mask0_227_2619)">
<path d="M40.4277 13.6579C40.4277 13.1185 40.6477 12.7875 40.9997 12.7875C41.2771 12.7875 41.4559 12.9922 41.4559 13.3088C41.4559 13.6464 41.2331 13.8119 40.7692 13.8119C40.6933 13.8131 40.6143 13.8109 40.532 13.8052C40.4842 13.8013 40.4268 13.7727 40.4268 13.6617L40.4277 13.6579ZM6.97341 10.3419H6.87203C6.80795 10.3419 6.76778 10.3802 6.76778 10.4423V12.4671C6.76778 12.5322 6.80795 12.5675 6.87299 12.5675H6.96863C7.59127 12.5675 7.9509 12.1611 7.9509 11.4562C7.9509 10.7513 7.60658 10.3448 6.97341 10.3448V10.3419ZM35.1979 21.1956C35.5939 20.8647 35.7594 20.3941 35.6264 19.8183L35.5834 19.7647C33.4505 18.7461 32.6012 18.2899 32.2674 18.0996C32.2475 18.0882 32.2254 18.081 32.2026 18.0785C32.1798 18.076 32.1567 18.0781 32.1348 18.0849C32.1128 18.0916 32.0925 18.1027 32.075 18.1176C32.0575 18.1325 32.0432 18.1507 32.0331 18.1713C31.9476 18.3371 31.8565 18.4987 31.7595 18.6562C31.7385 18.6913 31.7306 18.7326 31.7373 18.7729C31.7439 18.8132 31.7647 18.8498 31.7959 18.8762C32.1737 19.1918 33.0048 19.868 35.1052 21.1994C35.13 21.2176 35.1769 21.2138 35.1979 21.1956ZM30.7237 7.88194C31.3463 8.57146 31.8595 9.35238 32.2454 10.1975C32.2779 10.274 32.3573 10.3123 32.4367 10.295C33.4812 10.0618 34.5073 9.75273 35.5069 9.37016C35.5176 9.36594 35.5274 9.35952 35.5356 9.35131C35.5437 9.3431 35.55 9.33328 35.5542 9.32248C35.5583 9.31168 35.5602 9.30014 35.5596 9.28859C35.559 9.27704 35.5561 9.26573 35.5509 9.25539C34.4223 7.11201 35.1262 5.82751 33.6954 5.41816C33.6667 5.4105 33.6342 5.41816 33.616 5.4392C32.3133 6.67683 31.3569 7.28513 30.7639 7.61892C30.7414 7.63136 30.722 7.64882 30.7074 7.66995C30.6927 7.69108 30.6831 7.7153 30.6793 7.74074C30.6755 7.76618 30.6776 7.79216 30.6855 7.81665C30.6934 7.84113 30.7068 7.86348 30.7247 7.88194M26.2658 13.0965C25.9453 13.0965 25.7617 13.5068 25.7617 14.2184C25.7617 14.9309 25.9492 15.3403 26.2658 15.3403C26.5814 15.3403 26.7688 14.9194 26.7688 14.2184C26.7688 13.5173 26.5852 13.0965 26.2658 13.0965ZM12.362 13.7793C12.4481 13.787 12.5265 13.787 12.6097 13.787C13.0918 13.787 13.3251 13.6148 13.3251 13.261C13.3251 12.931 13.1386 12.7187 12.8507 12.7187C12.4835 12.7187 12.2539 13.0678 12.2539 13.6282C12.2539 13.7468 12.3151 13.7765 12.362 13.7793ZM31.8294 17.1824C31.1896 18.7523 30.0966 20.0961 28.6899 21.0423C27.2831 21.9884 25.6264 22.4939 23.9311 22.4944C20.3597 22.4944 17.0447 20.1062 15.8826 16.7826C15.7813 16.7003 15.6914 16.6104 15.6053 16.5129C15.4478 16.6257 15.2861 16.7325 15.1204 16.8333C14.7091 17.0886 13.4839 17.8184 11.4476 18.3731C11.4244 18.3779 11.4002 18.3738 11.3797 18.3617C11.1987 18.2412 11.05 18.0782 10.9466 17.887C10.8432 17.6957 10.7883 17.482 10.7867 17.2646V16.6525C10.7294 16.6066 9.61701 15.8328 9.79395 13.8195C9.00202 14.3838 7.93464 14.4527 7.27948 14.4556V14.6861H7.52815C7.67781 14.6861 7.82134 14.7455 7.92717 14.8513C8.033 14.9572 8.09245 15.1007 8.09245 15.2504V16.6181C8.09245 16.7677 8.033 16.9113 7.92717 17.0171C7.82134 17.1229 7.67781 17.1824 7.52815 17.1824H4.05245C3.90279 17.1824 3.75926 17.1229 3.65343 17.0171C3.5476 16.9113 3.48815 16.7677 3.48815 16.6181V15.2504C3.48815 15.1174 3.55606 14.8228 3.86881 14.7147V10.91C3.75738 10.8717 3.66075 10.7994 3.59248 10.7034C3.52421 10.6073 3.48773 10.4923 3.48815 10.3744V9.00672C3.48815 8.75517 3.68613 8.44242 4.05245 8.44242H7.22783C8.51902 8.44242 10.7705 8.69779 10.8575 11.2907C11.483 10.3773 11.5012 11.0468 12.2348 9.08228L15.259 10.669C15.2958 10.6878 15.3242 10.7195 15.3389 10.758C15.3535 10.7965 15.3534 10.8391 15.3384 10.8775C15.2045 11.241 15.0974 11.6188 15.0113 11.9994C15.1079 12.1142 15.1873 12.2404 15.2524 12.3696C15.2664 12.3402 15.282 12.3128 15.2992 12.2873C15.3958 12.1113 15.5144 11.9526 15.6474 11.8091C15.6617 11.7909 15.6799 11.7766 15.6981 11.7584C16.6688 8.11914 19.9886 5.43633 23.934 5.43633C25.7012 5.43592 27.4249 5.98497 28.8664 7.00746C30.3079 8.02995 31.3958 9.4753 31.9795 11.1434C32.0733 11.1252 32.2951 11.0927 32.6127 11.1252C32.6056 11.1029 32.6033 11.0793 32.6059 11.056C32.6085 11.0327 32.616 11.0102 32.6278 10.9899C32.6396 10.9697 32.6555 10.9521 32.6744 10.9383C32.6934 10.9246 32.7151 10.9149 32.738 10.91C33.331 10.7761 34.5763 10.4701 36.2519 9.791C36.2649 9.78649 36.2788 9.78483 36.2925 9.78615C36.3062 9.78747 36.3194 9.79174 36.3313 9.79865C36.8889 10.1717 37.1443 10.5638 37.1328 11.2983C37.4064 11.3949 38.1256 11.7001 38.4527 12.5102C38.9281 11.6905 39.7946 11.219 40.9739 11.219C42.6429 11.219 43.5314 12.2079 43.5276 13.2906C43.5276 13.8836 43.2693 14.2547 43.0599 14.4632C43.1335 14.5154 43.1938 14.5842 43.2359 14.6641C43.2645 14.7186 43.2397 14.6641 43.6395 15.8261C43.6802 15.9378 43.684 16.0596 43.6502 16.1736C43.6165 16.2876 43.547 16.3878 43.452 16.4593C42.7328 17.0054 41.74 17.1785 41.0102 17.1785C40.6257 17.1785 39.4857 17.1278 38.7262 16.2613C38.5713 16.772 37.327 17.2111 36.3495 17.279C36.1802 17.5812 35.7699 18.178 35.5509 18.7901C35.5145 18.8906 35.4323 18.9116 35.3452 18.8762C33.5366 18.002 32.803 17.6032 32.5371 17.4511C32.5011 17.431 32.4737 17.3984 32.4603 17.3593C32.4469 17.3203 32.4484 17.2777 32.4644 17.2397C32.4753 17.2142 32.4848 17.1887 32.4931 17.1632H31.8389L31.8294 17.1824ZM10.3506 11.4533C10.3506 9.75083 9.35877 8.95698 7.22974 8.95698H4.05436C4.04721 8.95672 4.04009 8.95792 4.03342 8.96051C4.02675 8.96309 4.02068 8.96701 4.01557 8.97203C4.01047 8.97704 4.00644 8.98304 4.00374 8.98966C4.00103 8.99629 3.99971 9.00339 3.99984 9.01054V10.3783C3.99984 10.4069 4.02471 10.4318 4.05341 10.4318H4.28295C4.34129 10.4318 4.38051 10.4672 4.38051 10.5284V15.0964C4.38051 15.1538 4.34225 15.193 4.28391 15.193H4.05436C4.04713 15.1927 4.03992 15.1939 4.03319 15.1966C4.02645 15.1992 4.02033 15.2032 4.01522 15.2083C4.0101 15.2135 4.00609 15.2196 4.00345 15.2263C4.0008 15.233 3.99958 15.2403 3.99984 15.2475V16.6133C3.99984 16.6458 4.02471 16.6678 4.05341 16.6678H7.52815C7.53522 16.6679 7.54224 16.6666 7.5488 16.664C7.55536 16.6613 7.56131 16.6574 7.56631 16.6524C7.57131 16.6474 7.57525 16.6414 7.5779 16.6349C7.58054 16.6283 7.58184 16.6213 7.58171 16.6142V15.2465C7.58184 15.2395 7.58054 15.2324 7.5779 15.2259C7.57525 15.2193 7.57131 15.2134 7.56631 15.2084C7.56131 15.2034 7.55536 15.1994 7.5488 15.1968C7.54224 15.1941 7.53522 15.1928 7.52815 15.193H6.86916C6.81178 15.193 6.77161 15.1576 6.77161 15.0964V14.0385C6.77161 13.985 6.81465 13.9419 6.86916 13.9419C8.00541 13.9419 10.3506 14.0099 10.3506 11.4456V11.4533ZM15.0984 16.0892L14.7167 14.9663C14.7101 14.9414 14.6957 14.9233 14.6594 14.9233H14.6383C14.2488 15.1652 13.7979 15.29 13.3395 15.2829C12.822 15.2829 12.4949 15.1212 12.2711 14.7616C12.2396 14.7109 12.2424 14.6392 12.2711 14.5818C12.2838 14.5571 12.303 14.5363 12.3265 14.5216C12.3501 14.507 12.3773 14.499 12.405 14.4986C12.4691 14.4986 12.692 14.6354 13.1893 14.6354C13.5193 14.6354 13.8473 14.5713 14.1343 14.445C14.6782 14.2072 14.9504 13.8163 14.9511 13.2724C14.9511 12.4595 14.2892 11.6398 12.8115 11.6398C11.2066 11.6398 10.2865 12.5819 10.2865 14.2222C10.2865 16.553 12.077 16.8046 12.8469 16.8046C13.7173 16.8046 14.5513 16.5635 15.0773 16.1638C15.0984 16.1465 15.106 16.1284 15.0945 16.0997L15.0984 16.0892ZM21.1297 10.1076C21.1381 10.391 21.2566 10.6601 21.4601 10.8576C21.6635 11.0551 21.936 11.1656 22.2195 11.1656C22.5031 11.1656 22.7755 11.0551 22.979 10.8576C23.1825 10.6601 23.301 10.391 23.3094 10.1076C23.301 9.82412 23.1825 9.55508 22.979 9.35755C22.7755 9.16002 22.5031 9.04953 22.2195 9.04953C21.936 9.04953 21.6635 9.16002 21.4601 9.35755C21.2566 9.55508 21.1381 9.82412 21.1297 10.1076ZM23.4203 15.2504C23.4203 15.2178 23.3955 15.1968 23.3524 15.1968C23.2951 15.1968 23.2549 15.1604 23.2549 15.0992V11.812C23.2549 11.7804 23.23 11.7584 23.1975 11.7584H21.1086C21.0934 11.7584 21.0788 11.7644 21.0681 11.7752C21.0573 11.786 21.0512 11.8006 21.0512 11.8158V13.1787C21.0512 13.2112 21.0761 13.2332 21.1086 13.2332H21.2158C21.2731 13.2332 21.3133 13.2686 21.3133 13.3298V15.0992C21.3133 15.1566 21.277 15.1968 21.2158 15.1968H20.4028C20.3454 15.1968 20.3062 15.1604 20.3062 15.0992V9.01437C20.3063 9.0073 20.305 9.00028 20.3024 8.99372C20.2997 8.98716 20.2958 8.98121 20.2908 8.97621C20.2858 8.97121 20.2798 8.96727 20.2733 8.96462C20.2667 8.96198 20.2597 8.96068 20.2526 8.96081H17.9141C17.8989 8.96081 17.8843 8.96685 17.8735 8.97762C17.8628 8.98838 17.8567 9.00297 17.8567 9.01819V10.3811C17.8567 10.4136 17.8816 10.4347 17.9141 10.4347H18.2384C18.2919 10.4347 18.335 10.4787 18.335 10.5322V11.3806C18.335 11.4992 18.6448 11.7909 18.7233 11.9066C18.817 12.0463 18.6554 12.2299 18.5081 12.2299C18.2671 12.2299 18.2422 11.6321 17.3603 11.6321H17.325C16.0873 11.658 15.3786 12.5962 15.3786 14.2145C15.3786 15.8328 16.1667 16.7969 17.3862 16.7969C18.0222 16.7969 18.3923 16.5961 18.6295 16.1178C18.7347 15.9093 19.0762 16.0279 19.0188 16.2183C18.993 16.3043 18.8533 16.6458 18.839 16.6716H23.3668C23.382 16.6716 23.3966 16.6656 23.4074 16.6548C23.4181 16.6441 23.4242 16.6295 23.4242 16.6142V15.2465L23.4203 15.2504ZM33.3817 11.9631C33.0799 11.7414 32.7135 11.6255 32.3391 11.6331C31.4468 11.6331 31.4076 12.2156 31.1599 12.5283C31.0374 12.6794 30.7237 12.5494 30.7888 12.3447C30.8576 12.1324 30.9542 11.8665 30.98 11.8158C30.9934 11.7871 30.9896 11.7517 30.9399 11.7517L27.3647 11.7364C27.3111 11.7364 27.3035 11.7689 27.3111 11.8014L27.4221 12.294C27.4623 12.5322 27.138 12.5895 27.0519 12.4375C26.7535 11.9133 26.4656 11.6331 25.7933 11.6331C24.5566 11.6331 23.7541 12.6469 23.7541 14.2155C23.7541 15.7831 24.4734 16.7979 25.7321 16.7979C26.3442 16.7979 26.5489 16.6458 26.8224 16.225C26.9267 16.0672 27.2241 16.1465 27.2107 16.3263C27.1457 17.1135 26.6493 17.4989 25.6852 17.4989C25.2251 17.4989 24.8148 17.3976 24.4017 17.1852C24.3761 17.1865 24.3583 17.1986 24.3481 17.2216L23.9416 18.4296C23.934 18.4516 23.9378 18.4774 23.9588 18.4908C24.4944 18.836 25.1429 18.9948 25.9989 18.9948C27.6822 18.9948 28.6846 18.0269 28.6846 16.4048V13.327C28.6846 13.2696 28.742 13.2294 28.7927 13.2294H29.5951C29.6487 13.2294 29.6917 13.2724 29.6917 13.327V15.0964C29.6917 15.1538 29.6525 15.193 29.5951 15.193H29.4765C29.4693 15.1927 29.4621 15.1939 29.4553 15.1966C29.4486 15.1992 29.4425 15.2032 29.4374 15.2083C29.4323 15.2135 29.4283 15.2196 29.4256 15.2263C29.423 15.233 29.4217 15.2403 29.422 15.2475V16.6133C29.422 16.6458 29.4478 16.6678 29.4765 16.6678H32.3066C32.3137 16.6679 32.3207 16.6666 32.3273 16.664C32.3338 16.6613 32.3398 16.6574 32.3448 16.6524C32.3498 16.6474 32.3537 16.6414 32.3564 16.6349C32.359 16.6283 32.3603 16.6213 32.3602 16.6142V15.2465C32.3603 15.2395 32.359 15.2324 32.3564 15.2259C32.3537 15.2193 32.3498 15.2134 32.3448 15.2084C32.3398 15.2034 32.3338 15.1994 32.3273 15.1968C32.3207 15.1941 32.3137 15.1928 32.3066 15.193H31.728C31.6706 15.193 31.6304 15.1576 31.6304 15.0964V14.0175C31.6304 13.6608 31.8389 13.4532 32.188 13.4532C32.4463 13.4532 32.7131 13.5823 32.8891 13.6789C32.9111 13.6894 32.958 13.7009 32.9723 13.6464L33.4075 12.0463C33.4151 12.008 33.4065 11.9803 33.3817 11.9631ZM38.226 16.0892L37.8454 14.9663C37.8377 14.9414 37.8234 14.9233 37.788 14.9233C37.7115 14.9233 37.3193 15.2829 36.4681 15.2829C35.9497 15.2829 35.6226 15.1212 35.3997 14.7616C35.3672 14.7109 35.3711 14.6392 35.3997 14.5818C35.4123 14.5572 35.4314 14.5365 35.4548 14.5219C35.4782 14.5072 35.5051 14.4992 35.5327 14.4986C35.5977 14.4986 35.8196 14.6354 36.317 14.6354C36.6479 14.6354 36.975 14.5713 37.2629 14.445C37.8068 14.2072 38.0787 13.8163 38.0787 13.2724C38.0787 12.4595 37.4169 11.6398 35.9392 11.6398C34.3352 11.6398 33.4142 12.5819 33.4142 14.2222C33.4142 16.553 35.2056 16.8046 35.9755 16.8046C36.8459 16.8046 37.6799 16.5635 38.204 16.1638C38.226 16.1465 38.2337 16.1284 38.2232 16.0997L38.226 16.0892ZM43.1498 16.0098L42.7835 14.9386C42.7758 14.9127 42.7615 14.8946 42.7289 14.8946C42.661 14.8946 42.2832 15.2398 41.4664 15.2398C40.9739 15.2398 40.6573 15.0849 40.445 14.7396C40.4307 14.7132 40.4233 14.6836 40.4233 14.6535C40.4233 14.6235 40.4307 14.5939 40.445 14.5675C40.4737 14.5168 40.5215 14.4842 40.575 14.4842C40.6363 14.4842 40.8486 14.6143 41.323 14.6143C41.8624 14.6143 43.0101 14.38 43.0101 13.3126C43.0101 12.535 42.377 11.7479 40.9634 11.7479C39.4273 11.7479 38.5503 12.6469 38.5503 14.2184C38.5503 16.4488 40.2623 16.6898 40.9987 16.6898C41.8308 16.6898 42.6285 16.4593 43.1316 16.0738C43.1536 16.0566 43.1574 16.0423 43.146 16.0126L43.1498 16.0098ZM35.4887 13.7793C35.5757 13.787 35.6551 13.787 35.7374 13.787C36.2194 13.787 36.4537 13.6148 36.4537 13.261C36.4537 12.931 36.2663 12.7187 35.9784 12.7187C35.6121 12.7187 35.3816 13.0678 35.3816 13.6282C35.3816 13.7468 35.4418 13.7765 35.4887 13.7793ZM17.8893 13.0965C17.5736 13.0965 17.3862 13.5173 17.3862 14.2184C17.3862 14.9194 17.5688 15.3403 17.8893 15.3403C18.2097 15.3403 18.3923 14.9309 18.3923 14.2184C18.3923 13.5068 18.2058 13.0965 17.8893 13.0965ZM25.295 23.2137C27.1074 28.9064 26.9812 31.1684 27.2404 31.176C27.5675 31.176 28.9734 29.4783 29.6573 29.5319C31.9193 29.8667 31.9623 29.924 31.9623 29.7806V29.7586C31.4764 28.0437 30.9513 26.1949 30.7897 25.688C30.7818 25.6606 30.7654 25.6365 30.7428 25.6191L26.9525 22.6159C26.9525 22.6159 26.9276 22.6063 26.9133 22.6092L25.4499 22.9726C25.3839 22.987 25.2261 22.9975 25.294 23.2165L25.295 23.2137ZM31.441 19.4654C31.4232 19.4509 31.4026 19.4402 31.3806 19.4338C31.3585 19.4274 31.3354 19.4254 31.3126 19.4281C31.2898 19.4308 31.2677 19.438 31.2477 19.4493C31.2277 19.4607 31.2102 19.4759 31.1962 19.4941C30.3281 20.6361 29.2046 21.5589 27.9156 22.1884C27.8008 22.2457 27.7798 22.4007 27.8802 22.4791C29.3981 23.6775 32.1459 25.8534 33.5156 26.9897C33.5596 27.0251 33.6275 27.0002 33.6418 26.9466C34.7063 23.1993 33.066 25.1342 36.6556 23.0951C36.6678 23.0875 36.678 23.077 36.685 23.0644C36.692 23.0519 36.6957 23.0377 36.6957 23.0233C36.6957 23.0089 36.692 22.9948 36.685 22.9822C36.678 22.9697 36.6678 22.9591 36.6556 22.9516C33.2573 20.9259 31.8906 19.8403 31.441 19.4654ZM12.12 8.27026L15.4962 10.0397C15.5823 10.0865 15.6875 10.0502 15.7306 9.96029C16.1025 9.20352 16.5769 8.50159 17.1404 7.87429C17.1672 7.84525 17.183 7.80766 17.185 7.76813C17.1869 7.7286 17.1748 7.68966 17.1509 7.65814C16.9672 7.40277 16.4862 6.75621 15.1691 5.17331C15.1366 5.13409 15.0725 5.13696 15.04 5.18096C13.6733 7.11871 11.9899 6.37077 11.9794 7.59692C11.9794 7.82073 11.9938 8.02541 12.0837 8.22722C12.0942 8.23678 12.1085 8.25591 12.1191 8.26548L12.12 8.27026ZM17.6081 7.13688C17.6224 7.15581 17.6405 7.17157 17.6612 7.18317C17.6819 7.19477 17.7048 7.20197 17.7284 7.2043C17.752 7.20664 17.7759 7.20406 17.7985 7.19674C17.821 7.18942 17.8419 7.1775 17.8596 7.16175C18.4532 6.63394 19.1122 6.18457 19.8203 5.82464C19.8503 5.80979 19.8754 5.78649 19.8924 5.75761C19.9094 5.72873 19.9176 5.69552 19.916 5.66205C19.8413 4.38616 19.3421 2.78125 19.2407 2.47997C19.2264 2.4398 19.1575 2.41494 19.1221 2.43598C17.3737 3.51197 16.3848 2.50867 15.5469 3.44024C15.3671 3.63727 15.2342 3.93663 15.216 4.13844C15.2236 4.15706 15.2296 4.17625 15.2342 4.19583C16.7234 5.96141 17.3594 6.80212 17.6081 7.13305V7.13688ZM20.5568 5.26321C20.56 5.28888 20.5689 5.31349 20.5829 5.33523C20.5969 5.35697 20.6156 5.37527 20.6377 5.38878C20.6597 5.40228 20.6846 5.41065 20.7103 5.41325C20.736 5.41586 20.762 5.41263 20.7863 5.40381C21.6614 5.08112 22.5813 4.89655 23.5131 4.85673C23.5552 4.85523 23.5953 4.83834 23.6258 4.80926C23.6563 4.78017 23.6751 4.74091 23.6786 4.69891C23.9626 1.36859 24.0172 1.40111 23.8699 1.40781C21.8767 1.51301 21.5935 1.05201 20.8628 1.02619C20.3846 1.02619 19.892 1.36477 19.7371 1.79229V1.84681C20.2947 3.34268 20.4956 4.73526 20.5568 5.26321ZM28.0199 5.81795C28.7276 6.17279 29.3866 6.61944 29.9729 7.1407C30.0226 7.18757 30.0944 7.19809 30.1594 7.1694C30.5296 6.98959 31.3932 6.53241 32.7743 5.29191C32.8097 5.25939 32.8097 5.19531 32.7705 5.16661C32.1842 4.71996 31.7815 4.26373 31.5367 3.75586C31.3712 3.41442 31.0623 1.85733 29.6449 2.24947C29.6305 2.26382 29.6095 2.27817 29.5913 2.29251L27.9443 5.58649C27.9343 5.60677 27.9284 5.62883 27.927 5.65139C27.9255 5.67395 27.9285 5.69658 27.9358 5.71798C27.9431 5.73939 27.9545 5.75915 27.9694 5.77614C27.9843 5.79312 28.0024 5.80701 28.0227 5.81699L28.0199 5.81795ZM24.5203 4.86725C25.402 4.92193 26.2708 5.10627 27.0988 5.41433C27.1382 5.42987 27.1819 5.42992 27.2213 5.41448C27.2607 5.39904 27.2928 5.36926 27.3111 5.33112L28.6741 2.5871C28.6741 2.5871 28.6817 2.56988 28.6817 2.56223C28.6817 2.39676 27.7463 2.36807 26.8721 1.4585C26.3977 0.972626 25.9119 0.57666 25.3763 0.57666C25.1423 0.58067 24.9142 0.65062 24.7182 0.778469C24.6752 0.807162 24.4916 3.12366 24.3548 4.69126C24.3532 4.71403 24.3562 4.73689 24.3636 4.75849C24.3709 4.7801 24.3825 4.80002 24.3977 4.81711C24.4128 4.8342 24.4312 4.84811 24.4517 4.85803C24.4723 4.86795 24.4946 4.87368 24.5174 4.8749L24.5203 4.86725ZM19.5716 22.0047C18.843 21.6081 18.1716 21.1145 17.5755 20.5375C17.5583 20.5205 17.5376 20.5073 17.5149 20.4989C17.4922 20.4905 17.4679 20.4871 17.4437 20.4888C17.4196 20.4905 17.396 20.4974 17.3747 20.5089C17.3534 20.5204 17.3348 20.5364 17.3202 20.5557C17.0285 20.9335 16.3704 21.7417 15.0438 22.8177C15.0347 22.8258 15.0274 22.8357 15.0223 22.8468C15.0173 22.858 15.0147 22.87 15.0147 22.8823C15.0147 22.8945 15.0173 22.9065 15.0223 22.9177C15.0274 22.9288 15.0347 22.9387 15.0438 22.9468C15.5144 23.2816 16.0041 23.7062 16.2662 24.3031C16.5435 24.9362 16.5292 25.9969 17.5038 25.9969C17.7621 25.9969 17.9926 25.8783 18.0356 25.8343C18.045 25.8247 18.0533 25.8141 18.0605 25.8027C18.0796 25.7664 19.147 23.7493 19.6539 22.2065C19.6663 22.1676 19.6644 22.1256 19.6486 22.0879C19.6329 22.0502 19.6042 22.0194 19.5678 22.0009L19.5716 22.0047ZM24.4055 23.1046C24.2544 23.1123 23.956 23.1238 23.8154 23.1161C23.8001 23.1161 23.7918 23.1257 23.7905 23.1448C23.8402 23.8143 23.8833 24.5049 23.8833 25.2126C23.8833 25.9644 23.8297 26.2991 23.8297 26.4464C23.8297 26.676 23.9273 26.4828 25.0348 26.4828C25.2185 26.4828 25.3332 26.4895 25.4078 26.4895C25.4843 26.4895 25.5054 26.4828 25.5054 26.4426C25.5054 26.3996 25.2825 25.4508 24.5776 23.228C24.5659 23.1918 24.5428 23.1603 24.5118 23.1383C24.4808 23.1162 24.4435 23.1048 24.4055 23.1056M23.0665 27.1169C23.384 25.1313 23.1755 23.6383 23.1028 23.2031C23.0961 23.1668 23.0778 23.1337 23.0508 23.1085C23.0237 23.0834 22.9893 23.0676 22.9526 23.0635C22.1067 22.9724 21.2775 22.7641 20.4889 22.4447C20.4674 22.436 20.4445 22.4316 20.4213 22.432C20.3982 22.4323 20.3753 22.4373 20.3542 22.4467C20.333 22.4561 20.314 22.4696 20.2982 22.4865C20.2824 22.5035 20.2701 22.5234 20.2622 22.5451C20.1072 22.9908 19.7553 23.9587 18.9461 25.577C18.9241 25.6239 18.9461 25.6775 18.9959 25.6918C20.7796 26.2102 21.387 27.1523 21.8986 27.3943C22.2764 27.5693 22.7652 27.4612 23.0492 27.1599C23.0603 27.1474 23.0679 27.1323 23.0712 27.1159L23.0665 27.1169ZM16.8917 19.9991C16.9143 19.9687 16.926 19.9315 16.9248 19.8937C16.9236 19.8558 16.9095 19.8194 16.885 19.7906C16.3384 19.1307 15.888 18.3969 15.5469 17.6108C15.5039 17.5142 15.392 17.4741 15.3021 17.5286C14.8784 17.784 13.9066 18.3339 12.274 18.8485C12.2624 18.8522 12.2517 18.8584 12.2428 18.8667C12.2338 18.8751 12.2269 18.8853 12.2224 18.8966C12.2179 18.908 12.216 18.9202 12.2168 18.9324C12.2176 18.9446 12.2212 18.9564 12.2271 18.9671C12.9789 20.265 12.8536 21.2826 12.9502 21.7034C13.1444 22.5528 13.9573 22.6752 14.1018 22.679C14.1185 22.6768 14.1343 22.6702 14.1477 22.6599C15.81 21.405 16.6153 20.373 16.8926 19.9952L16.8917 19.9991ZM2.08697 9.65423L2.45041 10.2157H2.17591L1.8316 9.6724H1.66518V10.2157H1.4165V8.90246H1.93202C2.21608 8.90246 2.39972 9.00767 2.39972 9.28791C2.39972 9.49641 2.28782 9.61501 2.08601 9.65136L2.08697 9.65423ZM2.15392 9.28122C2.15392 9.14349 2.03914 9.11479 1.90333 9.11479H1.669V9.4639H1.84499C2.02193 9.4639 2.15105 9.4572 2.15105 9.28026L2.15392 9.28122ZM2.97454 9.5538C2.97454 10.1726 2.48867 10.6614 1.86698 10.6614C1.2453 10.6614 0.754646 10.1764 0.754646 9.55476C0.754123 9.4092 0.782599 9.265 0.838409 9.13056C0.89422 8.99613 0.976248 8.87416 1.07971 8.77177C1.18316 8.66938 1.30598 8.58862 1.44099 8.53421C1.57599 8.47979 1.72048 8.45282 1.86603 8.45485C2.01079 8.45384 2.15433 8.48142 2.28841 8.53601C2.42249 8.59059 2.54448 8.67111 2.64738 8.77294C2.75027 8.87477 2.83206 8.99591 2.88803 9.12942C2.94401 9.26292 2.97309 9.40617 2.97359 9.55093L2.97454 9.5538ZM2.72587 9.5538C2.72587 9.03254 2.33086 8.66527 1.86698 8.66527C1.75155 8.66574 1.63738 8.68926 1.53117 8.73447C1.42496 8.77967 1.32885 8.84564 1.24848 8.9285C1.16812 9.01136 1.10512 9.10944 1.06318 9.21698C1.02124 9.32453 1.00122 9.43937 1.00428 9.55476C1.00428 10.0712 1.39929 10.4538 1.86698 10.4538C2.33468 10.4538 2.72682 10.0865 2.72682 9.55476" fill="#190A05"/>
</g>
</svg>
