<svg width="54" height="21" viewBox="0 0 54 21" fill="none" xmlns="http://www.w3.org/2000/svg">
<path d="M22.2219 15.2593L23.4518 17.0086C22.6419 17.827 19.7827 20.4087 15.4896 20.4087C9.44609 20.4087 9.06277 15.9461 3.05062 15.9461H1.28736L0.973145 14.1385L7.76597 7.20857H2.49994L2.90377 5.07495H11.5387L11.164 7.02177L4.57201 13.7628C9.63073 13.7628 10.8811 18.3226 15.8405 18.3226C18.8671 18.3226 21.343 16.2063 22.2219 15.2582" fill="#190A05"/>
<path d="M17.6978 4.83091C13.9931 4.83091 11.4243 8.02378 11.4243 11.708C11.4243 14.2972 13.1217 16.1912 15.8719 16.1912C19.5766 16.1912 22.1691 13.0199 22.1691 9.33786C22.1659 6.9343 20.6207 4.83091 17.6978 4.83091ZM16.2239 14.1839C14.9098 14.1839 14.1 13.1365 14.1 11.6388C14.1 9.60672 15.3061 6.84144 17.3857 6.84144C18.9654 6.84144 19.4621 8.22354 19.4621 9.3411C19.4621 11.5104 18.1718 14.1839 16.2239 14.1839ZM33.1169 7.88881C33.1169 6.07804 31.7564 4.83307 29.6087 4.83307C25.8587 4.82983 23.4432 8.40602 23.4432 11.6831C23.4432 14.3437 24.8955 16.1912 27.907 16.1912C29.2211 16.1912 30.6723 15.8769 31.7488 15.3198L31.5037 13.4248C30.5784 13.9029 29.5499 14.1469 28.5084 14.1353C27.4848 14.1353 26.6976 13.752 26.2787 13.0188C26.0336 12.5912 25.944 11.858 25.9882 11.4747C30.1896 11.5773 33.1169 10.6833 33.1169 7.88881ZM29.2729 6.77233C30.1 6.77233 30.6572 7.19992 30.6572 7.88881V7.91257C30.6572 9.21045 28.9392 9.58621 26.2549 9.54086C26.5767 8.22354 27.6457 6.77233 29.274 6.77233M51.0464 6.77233C51.9426 6.77233 52.6758 7.03903 53.0796 7.26039L53.7523 5.38915C53.2643 5.09869 52.3249 4.83199 51.1846 4.83199C48.6169 4.83199 46.7824 6.30803 46.7824 8.40818C46.7824 9.66179 47.6775 10.5699 48.9312 11.2426C50.0001 11.7997 50.3586 12.2273 50.3586 12.9162C50.3586 13.6256 49.7323 14.2303 48.685 14.254C47.7013 14.254 46.6291 13.8265 46.0719 13.5198L45.4003 15.391C45.9801 15.8186 47.1657 16.1696 48.4323 16.1933C51.0453 16.1933 53.0559 14.8555 53.0559 12.4649C53.0559 11.0817 51.9869 10.1866 50.8024 9.5387C49.8867 9.07116 49.3955 8.64249 49.3955 8.04106C49.3976 7.30466 50.0617 6.77233 51.0464 6.77233ZM43.4157 2.12717C43.4157 1.19641 44.1262 0.546387 44.9835 0.546387C45.7858 0.546387 46.3656 1.1273 46.3656 1.95332C46.3429 2.91648 45.6325 3.52115 44.7622 3.52115H44.7384C43.9491 3.51575 43.4157 2.93375 43.4157 2.12717ZM40.9776 15.9482H43.569L45.6454 5.07494H43.0572L40.9776 15.9482ZM38.2123 14.1126C37.4413 14.1126 37.0429 13.6375 37.2405 12.67L38.3419 7.08546H40.78L41.1838 5.0771H38.7241L39.2597 2.28805L36.5786 3.06549L36.1791 5.07386H34.6523L34.269 7.08222H35.7968L34.6739 12.8277C34.2744 14.8997 35.3218 16.1976 37.6918 16.1976C38.2404 16.1976 38.8299 16.0681 39.3968 15.932L39.481 13.915C39.0459 14.0122 38.6258 14.1137 38.2123 14.1137" fill="#190A05"/>
</svg>
